<svg xmlns="http://www.w3.org/2000/svg" xmlns:xlink="http://www.w3.org/1999/xlink" width="261.488" height="229.542" viewBox="0 0 261.488 229.542"><defs><style>.a{fill:#56487d;}.b{fill:#fff435;}.c{fill:#fff;}.d{fill:#f93a55;}.e{fill:#fbe701;}.f{fill:#3e3e3e;}.g{fill:#3f3f3f;}.h{filter:url(#a);}</style><filter id="a" x="0" y="0" width="261.488" height="229.542" filterUnits="userSpaceOnUse"><feOffset dx="2" dy="4" input="SourceAlpha"/><feGaussianBlur stdDeviation="3" result="b"/><feFlood flood-color="#292929"/><feComposite operator="in" in2="b"/><feComposite in="SourceGraphic"/></filter></defs><g transform="translate(-59.4 -185.592)"><g transform="translate(66.4 190.592)"><g transform="translate(0 0)"><g class="h" transform="matrix(1, 0, 0, 1, -7, -5)"><path class="a" d="M104.514,206.928a16.935,16.935,0,0,0,0-7.41c-.421-2.148-1.119-3.753-.279-4.612.581-.6,1.471-.392,1.678-.979.119-.339-.061-.735-1.259-2.237a20.355,20.355,0,0,1-1.817-2.237c-.745-1.457.053-2.01-.559-3.5-.563-1.366-1.37-1.213-2.657-2.936a11.209,11.209,0,0,1-1.677-3.5c-.813-2.478-.3-3.069-.978-4.893-.582-1.564-1.189-1.75-2.8-3.914a19.719,19.719,0,0,1-3.494-6.152c-1.068-3.6.5-4.669-.84-7.549-1.13-2.428-2.306-1.8-3.355-4.2-1.376-3.135.116-5.407-1.678-7.409-.562-.629-.917-.636-2.377-1.4a32.03,32.03,0,0,1-7.549-5.731,23.408,23.408,0,0,1-4.754-5.453c-.147-.255-.27-.508-.4-.762a88.546,88.546,0,0,0-21.61,13.644q-2.736,2.343-5.28,4.9c-.844.855-1.679,1.718-2.488,2.6-.408.441-.807.89-1.206,1.339l-.917,1.049-.546.629-.275.314-.067.079-.035.039-.055-.014-.22-.062-1.765-.489-1-.3q-.909-.289-1.807-.614-1.8-.651-3.534-1.448c-1.158-.53-2.294-1.107-3.4-1.748-1.124-.6-2.183-1.311-3.256-2a49.263,49.263,0,0,1-11.054-10.414,53.011,53.011,0,0,1-4.227-6.3c-.619-1.09-1.187-2.239-1.78-3.355-.513-1.16-1.063-2.307-1.521-3.49a53.008,53.008,0,0,1-3.451-14.75,56.013,56.013,0,0,1-.18-7.575q.09-1.891.288-3.778c.082-.627.143-1.257.242-1.881L.76,97.312l.307-1.81,2.058-.621c.321-.106.64-.218.956-.34.633-.238,1.252-.507,1.857-.8a20.531,20.531,0,0,0,3.421-2.1c1.073-.811,2.175-1.8,3.359-2.727s2.4-1.819,3.652-2.653c.63-.417,1.268-.827,1.967-1.223a12.261,12.261,0,0,1,1.13-.574,5.4,5.4,0,0,1,1.543-.454,4.86,4.86,0,0,1,1.707.133,6.134,6.134,0,0,1,1.409.527,8.63,8.63,0,0,1,2.2,1.636,11.739,11.739,0,0,1,2.7,4.357,10.761,10.761,0,0,1,.449,4.885A4.57,4.57,0,0,1,30.64,96.7a6.744,6.744,0,0,1,1.037,4.245,10.594,10.594,0,0,1-.575,2.822,8.217,8.217,0,0,1,1.53,2.625A7.882,7.882,0,0,1,33.1,108.9a8.3,8.3,0,0,1-.4,2.564,9.126,9.126,0,0,1-1.1,2.3,10.551,10.551,0,0,1-1.606,1.932,12.047,12.047,0,0,1-2.505,1.849,8.441,8.441,0,0,1,.025,1.637,13.353,13.353,0,0,1-.367,2.254,21.518,21.518,0,0,1-1.444,4.095,14.8,14.8,0,0,1-.858,1.552c.58.954,1.343,2.529,2.286,3.994a31.587,31.587,0,0,0,2.235,3.156c.326.417.628.744.826.987l.345.384.343.384c.215.23.519.554.891.93.415.422.929.9,1.492,1.4,1.757-.545,4.644-1.282,7.487-2.187,2.288-.714,4.553-1.5,6.249-2.149.845-.326,1.556-.6,2.053-.8l.819-.331.815-.336c.5-.2,1.2-.5,2.03-.865.482-.21,3.382-1.488,5.968-2.84a81.527,81.527,0,0,0,8.4-5.134,19.917,19.917,0,0,1-7.161-6.64A15.913,15.913,0,0,1,57.26,110.6c-1.254-9.015,8.668-15.8,9.507-16.357a26.463,26.463,0,0,1,2.657-1.529c8.466-5.419,25.454-9.3,45.1-9.62.273,0,.541,0,.81,0h.559c.071.137.14.278.209.418C92.229,85.29,74.2,92.366,74.33,100.528c.1,6.419,11.418,11.8,27.879,14.3-10.548-2.863-20.385-8.05-20.249-12.826.074-2.626,3.172-5.16,8.058-7.348a93.326,93.326,0,0,1,13.309-5.578A73.312,73.312,0,0,1,117.5,86.515a69.123,69.123,0,0,1,3.049,8.8,61.24,61.24,0,0,0-15.567,2.75c-9,2.853-10.561,5.736-11,7.363-.4,1.5-.372,3.878.374,4.134.616.213,1.529-1.087,2.048-1.712,2.993-3.605,8.8-3.995,15.938-4.474a60.972,60.972,0,0,1,10.074.167q.3,1.613.555,3.3c-6.294.595-13.508,2.45-13.471,4.179.048,2.322,13.173,3.662,14.259,3.774a53.149,53.149,0,0,0,13.456-.287,28.131,28.131,0,0,0,6.629-1.577c3.418-1.337,9.84-4.769,9.461-7.97-.3-2.5-4.626-3.848-8.435-5.033a39.135,39.135,0,0,0-9.762-1.6q.2-.834.409-1.65a80.007,80.007,0,0,1,8.189.593c-2.826-.607-5.494-1.041-7.985-1.353a69.3,69.3,0,0,1,3.352-9.735,175.339,175.339,0,0,1,31.875,5.04A50.521,50.521,0,0,1,184.2,97.181a16.432,16.432,0,0,1,4.054,3.5c1.03,1.247,3.429,4.126,3.217,7.829-.149,2.582-1.472,4.391-2.657,6.012-2.641,3.611-6.046,5.389-9.646,7.269-1.23.643-2.346,1.153-3.284,1.554,2.594,1.686,5.588,3.539,8.965,5.466,5.59,3.191,8.807,5.007,13.333,6.632a56.639,56.639,0,0,0,12.088,2.878c.562-.493,1.076-.975,1.492-1.4.372-.376.676-.7.89-.93l.344-.384.345-.384c.2-.243.5-.571.827-.987a31.93,31.93,0,0,0,2.234-3.156c.941-1.465,1.706-3.04,2.286-3.994a14.812,14.812,0,0,1-.859-1.552,21.72,21.72,0,0,1-1.444-4.095,13.345,13.345,0,0,1-.366-2.254,8.368,8.368,0,0,1,.025-1.637,12.026,12.026,0,0,1-2.505-1.849,10.509,10.509,0,0,1-1.6-1.932,9.1,9.1,0,0,1-1.1-2.3,8.3,8.3,0,0,1-.4-2.564,7.884,7.884,0,0,1,.465-2.517,8.218,8.218,0,0,1,1.53-2.625,10.557,10.557,0,0,1-.576-2.822,6.744,6.744,0,0,1,1.038-4.245,4.58,4.58,0,0,1,1.165-1.151,10.775,10.775,0,0,1,.45-4.885,11.754,11.754,0,0,1,2.7-4.357,8.626,8.626,0,0,1,2.2-1.636,6.143,6.143,0,0,1,1.41-.527,4.856,4.856,0,0,1,1.706-.133,5.4,5.4,0,0,1,1.544.454,12.276,12.276,0,0,1,1.131.574c.7.4,1.338.806,1.966,1.223,1.247.834,2.474,1.713,3.652,2.653s2.287,1.916,3.359,2.727a20.533,20.533,0,0,0,3.421,2.1c.605.294,1.225.562,1.856.8.316.122.636.234.957.34l2.058.621.307,1.81.174,1.131c.1.624.161,1.254.242,1.881.12.924.261,3.08.288,3.778.126,3.285-.922,15.4-3.632,22.325-.7,1.79-1.52,3.49-1.52,3.49-.594,1.116-1.163,2.266-1.781,3.355a52.906,52.906,0,0,1-4.227,6.3,49.26,49.26,0,0,1-11.053,10.414c-1.073.687-2.133,1.395-3.256,2-1.1.641-2.237,1.218-3.4,1.748s-2.337,1.014-3.533,1.448q-.9.323-1.809.614l-1,.3-1.765.49-.22.062-.055.014-.035-.039-.067-.079-.275-.314-.546-.629-.917-1.049c-.4-.448-.8-.9-1.206-1.339-.809-.887-1.645-1.75-2.488-2.6q-2.538-2.558-5.281-4.9a88.3,88.3,0,0,0-16.772-11.3,12.639,12.639,0,0,1-.456,2.615,13.747,13.747,0,0,1-3.5,5.731,21.673,21.673,0,0,1-5.872,4.335,35.875,35.875,0,0,1-7.13,3.075c.218.468.519,1.138.839,1.957a19.341,19.341,0,0,1,1.4,4.754,12.114,12.114,0,0,1-.28,4.475,12.262,12.262,0,0,1-3.5,5.591,18.157,18.157,0,0,1-6.57,4.055,25.692,25.692,0,0,1-7.69,1.817c.02.7.034,1.712,0,2.937a21.864,21.864,0,0,1-.419,4.612,10.418,10.418,0,0,1-1.258,3.355,11.281,11.281,0,0,1-5.453,4.194,16.576,16.576,0,0,1-3.5,1.119,6.128,6.128,0,0,1,0,2.1,6.842,6.842,0,0,1-1.259,2.8,11.38,11.38,0,0,1-2.935,2.936,8.691,8.691,0,0,1-4.334,1.817,7.608,7.608,0,0,1-3.216-.419,4.567,4.567,0,0,1-.559,2.517,5.384,5.384,0,0,1-2.236,1.957,11.675,11.675,0,0,1-3.775,1.4,6.294,6.294,0,0,1-1.538,2.236,6.866,6.866,0,0,1-3.076,1.538,62.852,62.852,0,0,0-9.646,3.636A28.569,28.569,0,0,0,104.514,206.928Zm2.517-10.252c-.419.458-.32,1.16.419,4.241a12.729,12.729,0,0,1,.513,2.517,7.252,7.252,0,0,1-.513,2.936,11.278,11.278,0,0,0,2.983-1.444,11.417,11.417,0,0,0,3.076-3.122,5.249,5.249,0,0,0-.187-3.915,3.558,3.558,0,0,0,2.144,1.445,3.627,3.627,0,0,0,2.935-.746c1.121-.979,1.5-2.708,1.073-3.03-.207-.155-.515.085-1.166.327a6.879,6.879,0,0,1-3.681.279c-.941-.2-1.638-.788-3.029-1.958a10.894,10.894,0,0,1-2.8-3.075,9.11,9.11,0,0,1-.978-2.562c-.261,3.363.586,5.094,1.445,6.057a7.5,7.5,0,0,1,1.957,2.61,5.551,5.551,0,0,1,.279,2.611c-.261-.342-1.333-1.737-2.423-3.03a1.446,1.446,0,0,0-.838-.56,1.141,1.141,0,0,0-.2-.016A1.441,1.441,0,0,0,107.031,196.676Zm-4.318-18.383a6.462,6.462,0,0,0,1.158,3,21.532,21.532,0,0,0,4.305,4.662,42.537,42.537,0,0,0,5.148,3.755,34.437,34.437,0,0,0,4.493,2.384c.315.137,1.116.423,2.718.993a7.3,7.3,0,0,0,2.3.518,6.431,6.431,0,0,0,.784-.016c-.479-.167-1.131-.407-1.893-.727-1.051-.442-1.79-.817-2.807-1.334-1.4-.713-2.445-1.3-2.834-1.526-.745-.426-1.525-.872-2.369-1.425a29.364,29.364,0,0,1-3.692-2.872,61.364,61.364,0,0,0,6.547,3.842,44,44,0,0,0,5.272,2.237,11.47,11.47,0,0,0,5.635.922,2.823,2.823,0,0,0,2.948-3.8c-.129-.786-.467-1.578-.686-1.553-.129.015-.123.3-.39.7a2.417,2.417,0,0,1-.677.655,4.506,4.506,0,0,1-2.233.649,10.391,10.391,0,0,1-2.077.007,15.127,15.127,0,0,1-2.822-.656c-.7-.208-1.626-.5-2.709-.883.35.247.719.493,1.113.733a21,21,0,0,0,3.6,1.764c-.618-.085-1.431-.218-2.374-.432a27.9,27.9,0,0,1-10.1-4.509,27.327,27.327,0,0,1-4.589-3.885A21.8,21.8,0,0,1,104,178.346a20.052,20.052,0,0,1-1.142-2.04A5.856,5.856,0,0,0,102.713,178.292Zm-7.519-15.058a9.76,9.76,0,0,0,2.29,4.335,35.041,35.041,0,0,0,7.526,6.508,71.285,71.285,0,0,0,8.723,5.082,58.593,58.593,0,0,0,7.474,3.11c.521.174,1.832.521,4.455,1.214a12.455,12.455,0,0,0,3.725.55,10.711,10.711,0,0,0,1.239-.1c-.784-.2-1.852-.5-3.109-.9-1.731-.555-2.957-1.042-4.646-1.711-2.329-.924-4.069-1.7-4.719-1.995-1.244-.561-2.546-1.148-3.967-1.889a49.161,49.161,0,0,1-6.282-3.909,104.571,104.571,0,0,0,10.95,5.077,75.428,75.428,0,0,0,8.688,2.818c4.046,1.051,6.479,1.326,9.063.832,1.39-.266,3.109-.62,3.957-2a4.931,4.931,0,0,0,.133-3.921c-.326-1.152-.98-2.3-1.323-2.239-.2.034-.146.458-.511,1.077a3.569,3.569,0,0,1-.973,1.036,7.218,7.218,0,0,1-3.436,1.177,17.487,17.487,0,0,1-3.287.205,25.719,25.719,0,0,1-4.568-.706c-1.142-.24-2.651-.582-4.423-1.05q.885.5,1.873.982a35.934,35.934,0,0,0,5.974,2.273c-.993-.067-2.3-.187-3.824-.414a47.826,47.826,0,0,1-16.678-5.729,45.453,45.453,0,0,1-7.856-5.328,35.043,35.043,0,0,1-4.412-4.433,30.961,30.961,0,0,1-2.116-2.917A8.215,8.215,0,0,0,95.194,163.234Zm-4.031-12.367a14.611,14.611,0,0,0,4.5,5.685c2.432,2.018,5.919,4.383,12.4,7.177a95.692,95.692,0,0,0,13.609,4.66,77.47,77.47,0,0,0,11.277,2.144c.773.085,2.69.164,6.524.326a16.377,16.377,0,0,0,5.313-.419,14.4,14.4,0,0,0,1.678-.56c-1.143-.04-2.71-.121-4.568-.3-2.56-.251-4.405-.567-6.943-1-3.5-.6-6.142-1.178-7.131-1.4-1.89-.421-3.868-.863-6.058-1.491a66.454,66.454,0,0,1-9.88-3.727,138.792,138.792,0,0,0,16.685,3.914,99.541,99.541,0,0,0,12.862,1.3c5.909.219,9.354-.179,12.769-1.772,1.836-.856,4.1-1.952,4.846-4.286s-.428-4.683-1.025-5.872c-.806-1.605-2.062-3.088-2.517-2.889-.268.117-.064.73-.373,1.77a5.485,5.485,0,0,1-1.025,1.865c-.273.356-1.259,1.566-4.38,2.89a23.61,23.61,0,0,1-4.474,1.4,33.959,33.959,0,0,1-6.525.466c-1.651.02-3.839.013-6.431-.094q1.377.449,2.889.839a47.55,47.55,0,0,0,8.947,1.4c-1.39.229-3.231.483-5.406.653a63.057,63.057,0,0,1-24.792-2.983,61.7,61.7,0,0,1-12.489-5.312,49.209,49.209,0,0,1-7.457-5.125,45.3,45.3,0,0,1-3.822-3.636A13.3,13.3,0,0,0,91.163,150.867Zm84.932-25.025a14.734,14.734,0,0,1,2.129,4.371,91.937,91.937,0,0,1,19.5,12.8q2.846,2.437,5.49,5.092c.876.888,1.744,1.786,2.585,2.708.425.458.84.924,1.253,1.391l.384.437.76-.233q.841-.266,1.67-.567,1.659-.6,3.263-1.338a34.454,34.454,0,0,0,3.133-1.614c1.037-.554,2.015-1.21,3-1.842a48.037,48.037,0,0,0,17.272-21.927,49.476,49.476,0,0,0,3.219-13.762,52.924,52.924,0,0,0,.169-7.1c-.057-1.185-.144-2.367-.271-3.545-.077-.587-.133-1.177-.225-1.762l-.1-.686-.041-.014c-.37-.122-.737-.251-1.1-.39q-1.093-.413-2.152-.928a24.051,24.051,0,0,1-4.009-2.463c-1.246-.949-2.317-1.91-3.422-2.777S226.369,90,225.2,89.213c-.584-.388-1.17-.762-1.74-1.084a8.665,8.665,0,0,0-.815-.417,2.188,2.188,0,0,0-.538-.18,1.656,1.656,0,0,0-.456.059,2.586,2.586,0,0,0-.629.239,5.133,5.133,0,0,0-1.284.969,8.282,8.282,0,0,0-1.867,3,7.138,7.138,0,0,0-.331,2.894,9.529,9.529,0,0,1,1.245.147c.3.056.582.124.851.192s.589.149.878.257a9.665,9.665,0,0,1,3.068,1.783,10.474,10.474,0,0,0,2.576,1.626,10.931,10.931,0,0,0,6.2.456,11.475,11.475,0,0,1-6.537.607,11.806,11.806,0,0,1-3.161-1.291,7.714,7.714,0,0,0-2.71-1.023c-.228-.044-.457-.05-.7-.077-.263-.02-.507-.035-.748-.037a6.089,6.089,0,0,0-1.338.111,2.39,2.39,0,0,0-.969.4,1.342,1.342,0,0,0-.455.6,3.441,3.441,0,0,0-.013,2.007,6.294,6.294,0,0,0,.409,1.141,7.1,7.1,0,0,1,2.434-.051,10.068,10.068,0,0,1,2.186.593,7.565,7.565,0,0,1,1.951,1.144c.566.447,1.076.888,1.628,1.287a16.706,16.706,0,0,0,1.73,1.092,17.547,17.547,0,0,0,3.843,1.541,17.737,17.737,0,0,1-4.076-1.035,17.3,17.3,0,0,1-1.939-.891c-.631-.336-1.234-.731-1.813-1.073a6.328,6.328,0,0,0-1.757-.741,8.639,8.639,0,0,0-1.891-.25A4.759,4.759,0,0,0,215.2,104.3a5.194,5.194,0,0,0-1.629,2.877,4.653,4.653,0,0,0,.389,3.1,7.6,7.6,0,0,0,4.419,3.641,4.639,4.639,0,0,1,1.3-.417,6.787,6.787,0,0,1,.757-.057c-.046-.1-.1-.2-.137-.31a9.407,9.407,0,0,1-.591-2.606,8.158,8.158,0,0,1-.019-1.171,7.982,7.982,0,0,0,.439,1.057,8.465,8.465,0,0,0,1.363,2,7.4,7.4,0,0,0,1.785,1.413l.11.053.206.065.281.1c.013.006.013.037.009.082l.045.022.263.1.195.2c.124.123.317.275.548.474a7.991,7.991,0,0,0,2.01,1.1,9.521,9.521,0,0,0,2.375.545,7.867,7.867,0,0,0,1.144.047,7.947,7.947,0,0,1-1.1.387,10.5,10.5,0,0,1-2.628.4,9.925,9.925,0,0,1-2.795-.346c-.377-.124-.7-.225-.923-.318l-.114-.051c-.032.052-.056.082-.066.078s-.3-.135-.808-.3a5.417,5.417,0,0,0-1.976-.3,1.569,1.569,0,0,0-.911.318,1.764,1.764,0,0,0-.636.966,5.173,5.173,0,0,0-.239,1.668,11.8,11.8,0,0,0,.143,1.939,22.6,22.6,0,0,0,.929,3.868,17.09,17.09,0,0,0,1.458,3.155c1.048,1.776,2.007,2.835,1.857,2.99-.12.136-1.36-.646-2.781-2.338-.1-.115-.193-.246-.29-.37a16.822,16.822,0,0,1-1.351,3.732,22.741,22.741,0,0,1-2.2,3.591c-.342.468-.662.835-.876,1.1s-.363.413-.373.425l-.381.417c-.239.248-.58.6-1,.992a22.522,22.522,0,0,1-3.33,2.574c-2.57,1.671-5.49,2.533-5.7,1.978s2.309-1.9,4.5-3.677c.136-.106.267-.216.4-.325a63.173,63.173,0,0,1-6.967-1.321,66,66,0,0,1-6.458-1.973,80.41,80.41,0,0,1-11.845-5.5c-2.232-1.209-5-2.8-8.1-4.8C175.964,125.657,176.028,125.745,176.095,125.842ZM21.428,87.532a2.21,2.21,0,0,0-.537.18,8.659,8.659,0,0,0-.815.417c-.57.322-1.157.7-1.74,1.084-1.171.785-2.314,1.6-3.411,2.479s-2.175,1.828-3.422,2.777a24.091,24.091,0,0,1-4.009,2.463q-1.059.513-2.152.928c-.364.14-.732.269-1.1.39l-.041.014-.1.686c-.092.585-.148,1.175-.227,1.762-.124,1.178-.212,2.361-.269,3.545a52.772,52.772,0,0,0,.169,7.1A49.447,49.447,0,0,0,6.99,125.124a48.031,48.031,0,0,0,17.272,21.927c.991.632,1.967,1.288,3,1.842a34.348,34.348,0,0,0,3.133,1.614q1.6.738,3.262,1.338.832.3,1.671.567l.76.233.384-.437c.413-.466.828-.933,1.252-1.391.842-.922,1.709-1.819,2.587-2.708q2.636-2.659,5.488-5.092a92.145,92.145,0,0,1,22.625-14.255,18.968,18.968,0,0,1-.633-3.685c-1.941,1.368-4.925,3.386-8.261,5.292,0,0-3.211,1.836-5.994,3.113-.844.388-1.556.7-2.065.913l-.832.351-.841.333c-.511.207-1.241.475-2.113.79-1.746.627-4.087,1.371-6.458,1.973a51.963,51.963,0,0,1-6.967,1.321c.133.109.264.218.4.325,2.19,1.779,4.714,3.135,4.5,3.677s-3.127-.307-5.7-1.978a22.517,22.517,0,0,1-3.33-2.574c-.423-.4-.764-.744-1-.992l-.382-.417-.372-.425c-.214-.27-.534-.636-.876-1.1a22.733,22.733,0,0,1-2.2-3.591,16.876,16.876,0,0,1-1.352-3.732c-.1.123-.193.255-.289.37-1.421,1.692-2.661,2.474-2.782,2.338-.149-.155.81-1.214,1.858-2.99a17.094,17.094,0,0,0,1.457-3.155,22.592,22.592,0,0,0,.93-3.868,11.792,11.792,0,0,0,.143-1.939,5.194,5.194,0,0,0-.239-1.668,1.769,1.769,0,0,0-.635-.966,1.57,1.57,0,0,0-.911-.318,5.416,5.416,0,0,0-1.976.3c-.509.167-.808.3-.808.3s-.034-.026-.066-.078l-.114.051c-.22.093-.546.194-.923.318a9.929,9.929,0,0,1-2.795.346,10.5,10.5,0,0,1-2.628-.4,7.946,7.946,0,0,1-1.1-.387,7.88,7.88,0,0,0,1.145-.047,9.523,9.523,0,0,0,2.374-.545,8.009,8.009,0,0,0,2.01-1.1c.231-.2.425-.351.548-.474l.195-.2.263-.1.044-.022c0-.045,0-.076.008-.082s.1-.034.282-.1l.206-.065.11-.053a7.421,7.421,0,0,0,1.785-1.413,8.464,8.464,0,0,0,1.363-2,8.14,8.14,0,0,0,.439-1.057,8.157,8.157,0,0,1-.019,1.171,9.445,9.445,0,0,1-.591,2.606c-.042.105-.091.206-.137.31a6.788,6.788,0,0,1,.757.057,4.646,4.646,0,0,1,1.3.417,7.6,7.6,0,0,0,4.419-3.641,4.654,4.654,0,0,0,.389-3.1,5.194,5.194,0,0,0-1.629-2.877,4.761,4.761,0,0,0-3.231-1.088,8.631,8.631,0,0,0-1.891.25,6.327,6.327,0,0,0-1.757.741c-.579.342-1.182.737-1.813,1.073a17.311,17.311,0,0,1-1.939.891,17.751,17.751,0,0,1-4.076,1.035,17.549,17.549,0,0,0,3.843-1.541,16.6,16.6,0,0,0,1.729-1.092c.553-.4,1.061-.841,1.629-1.287a7.574,7.574,0,0,1,1.95-1.144,10.063,10.063,0,0,1,2.187-.593,7.1,7.1,0,0,1,2.434.051,6.3,6.3,0,0,0,.409-1.141,3.432,3.432,0,0,0-.014-2.007,1.332,1.332,0,0,0-.454-.6,2.389,2.389,0,0,0-.97-.4,6.015,6.015,0,0,0-1.338-.111c-.241,0-.484.017-.748.037-.245.027-.474.033-.7.077a7.714,7.714,0,0,0-2.71,1.023,11.818,11.818,0,0,1-3.161,1.291,11.475,11.475,0,0,1-6.537-.607,10.932,10.932,0,0,0,6.2-.456,10.476,10.476,0,0,0,2.576-1.626,9.644,9.644,0,0,1,3.068-1.783c.29-.107.6-.178.878-.257s.556-.137.851-.192A9.529,9.529,0,0,1,26,94.7a7.14,7.14,0,0,0-.332-2.894,8.265,8.265,0,0,0-1.866-3,5.133,5.133,0,0,0-1.284-.969,2.577,2.577,0,0,0-.63-.239,2.184,2.184,0,0,0-.423-.063A.084.084,0,0,0,21.428,87.532Zm52.329,41.316c.954,3.5,3.615,5.588,5.663,7.059a74.071,74.071,0,0,0,13.77,7.829,104.766,104.766,0,0,0,15.728,4.894,99.4,99.4,0,0,0,18.734,3.145c1.4.083,4.942.125,12.022.21a55.509,55.509,0,0,0,6.781-.141,35.828,35.828,0,0,0,10.136-2.586c-1.72.034-4.15.071-7.059.069-6.261,0-10.609-.008-16.008-.419a132.829,132.829,0,0,1-16.94-2.377c-4.464-.937-8.213-1.975-11.045-2.842,4.9.971,10.587,1.931,16.939,2.7,20.889,2.537,32.062.979,40.544-2.027,5.106-1.811,9.557-4.259,10.626-8.249a10.114,10.114,0,0,0-.35-5.592c-.751-1.961-2.487-4.4-3.774-4.124-.876.19-.97,1.508-1.748,3.075-1.3,2.612-3.5,3.884-6.082,5.383-1.914,1.11-4.666,2.314-13.98,3.5-3.033.384-7.074.807-11.884,1.048a50.835,50.835,0,0,0,16.846,1.259,102.922,102.922,0,0,1-22.089,2.727,122.671,122.671,0,0,1-15.519-.909,93.161,93.161,0,0,1-16.5-2.8A79.592,79.592,0,0,1,88.3,136.048c-8.084-3.493-11.465-6.544-12.792-7.829-.914-.885-1.621-1.676-2.1-2.238A10.164,10.164,0,0,0,73.757,128.848ZM64.111,105.01a10.563,10.563,0,0,0-1.4,4.893c0,3.25,2.192,5.587,3.636,7.131a21.77,21.77,0,0,0,7.829,5.172,100.853,100.853,0,0,0,15.938,5.453,161.115,161.115,0,0,0,24.465,3.774,149.973,149.973,0,0,0,27.4-.279,110.7,110.7,0,0,0,13.7-2.377c3.976-.965,7.332-2.027,9.926-2.936-1.788.133-4.394.3-7.549.419-4.251.159-7.426.145-8.948.141-6.578-.024-10.3,0-12.8.022-3.392.03-4.568.061-7.608-.022-5.373-.148-12.856-.551-21.949-1.679,5.172.362,11.412.636,18.5.606,7.453-.03,13.066-.385,14.96-.512,7.193-.485,13.411-1.251,18.92-2.144a75.492,75.492,0,0,0,10.439-2.236,59.361,59.361,0,0,0,10.905-4.893c2.338-1.334,4.274-2.644,5.452-4.987a6.687,6.687,0,0,0,.84-3.542,7.679,7.679,0,0,0-2.75-4.893,32.324,32.324,0,0,0-11.184-6.664c-2.65-.84-4.893-1.55-6.922-2.162,5.213,2.251,8.3,5.031,8.341,8.08,0,.117-.022.231-.029.346.01.094.03.186.03.279a4.373,4.373,0,0,1-1.218,2.729c-1.941,2.616-6.121,4.99-11.884,6.9a53.725,53.725,0,0,1-5.513,1.742c-1.578.4-3.895.741-8.53,1.427-3.637.539-9.909,1.467-16.787,1.929a118.6,118.6,0,0,1-17.326.121c-1.389-.13-2.829-.327-4.289-.579-21.74-.523-39.321-5.54-43.865-12.335A10.183,10.183,0,0,0,64.111,105.01Zm63.851,7.8c-.669-.017-1.3-.056-1.915-.1-3.278-27.1-12.873-40.445-21.938-45.591a29.492,29.492,0,0,0-3.386-1.644,19.175,19.175,0,0,0,6.1-2.145,18.6,18.6,0,0,0,7.455-7.687,54.281,54.281,0,0,0,.9,7.558c1.889,10.046,4.848,12.085,10.172,30.978,1.176,4.171,2.121,7.939,2.871,11.149.749-3.21,1.695-6.979,2.87-11.149,5.325-18.893,8.283-20.931,10.172-30.978a54.288,54.288,0,0,0,.9-7.558,18.593,18.593,0,0,0,7.455,7.687,19.177,19.177,0,0,0,6.1,2.145,29.317,29.317,0,0,0-3.384,1.644c-9.017,5.12-18.409,18.839-21.732,45.667-.546.025-1.114.039-1.7.039Q128.434,112.819,127.962,112.807Zm5.477-5.832c.068-.451.139-.9.212-1.346,3.088.857,5.033,1.681,4.976,1.946-.011.05-.093.072-.241.072C137.772,107.647,136.019,107.269,133.439,106.975Zm-12.277-9.293c.068.278.138.553.205.834-2.243.158-4.856.4-7.776.769C115.851,98.69,118.385,98.131,121.162,97.682Zm6.643-2.4c-.151-.559-.3-1.118-.455-1.673-.819-2.9-1.579-5.4-2.29-7.606,1.988-.074,4.1-.107,6.338-.086-.718,2.221-1.488,4.751-2.318,7.692-.159.566-.31,1.137-.465,1.707C128.344,95.3,128.07,95.29,127.805,95.28Zm-43.716-35.6c-.518-.38-1.009-.789-1.489-1.206a22.213,22.213,0,0,0,9.481,2.712,24.221,24.221,0,0,0,11.093-1.955,20.527,20.527,0,0,0,11.246-11.264,21.392,21.392,0,0,1-2.392,6.428,18.621,18.621,0,0,1-7.816,7.478,18.067,18.067,0,0,1-8.1,1.9A20.342,20.342,0,0,1,84.089,59.676ZM152.334,61.7a18.54,18.54,0,0,1-7.663-7.645,21.41,21.41,0,0,1-2.209-6.189,20.5,20.5,0,0,0,11.285,11.361,24.217,24.217,0,0,0,11.092,1.955,22.22,22.22,0,0,0,9.345-2.643c-.533.454-1.083.89-1.661,1.3a20.447,20.447,0,0,1-11.812,3.906A18.007,18.007,0,0,1,152.334,61.7Zm9.159-3.687-.006.054,0-.055a21.39,21.39,0,0,1-6.762-1.69c-.141-.06-.274-.129-.41-.193a15.049,15.049,0,0,0-.16,1.507,15.185,15.185,0,0,1,.092-1.539q-.631-.292-1.231-.621c-.018.016-.039.026-.057.041-.156.14-.315.271-.479.4.154-.164.314-.323.479-.469a20.033,20.033,0,0,1-2.843-1.9c-.019.137-.047.273-.055.41,0-.143.021-.285.032-.427a16.474,16.474,0,0,1-6.236-10.682c-1.172-9.035,6.244-16.891,16.533-17.512a21.51,21.51,0,0,1,9.848,1.736c6.053,2.64,10.116,7.677,10.869,13.474,1.171,9.036-6.244,16.891-16.533,17.512q-.6.035-1.2.035C162.749,58.094,162.119,58.066,161.492,58.014Zm-69.148.046c-10.287-.621-17.7-8.476-16.532-17.512.752-5.8,4.815-10.834,10.868-13.474a21.511,21.511,0,0,1,9.849-1.736c10.289.621,17.705,8.477,16.533,17.512a16.479,16.479,0,0,1-6.236,10.682c.01.143.031.284.031.427-.009-.138-.036-.274-.054-.41a20.142,20.142,0,0,1-2.843,1.9c.164.146.324.3.48.469-.165-.127-.325-.258-.48-.4-.019-.015-.039-.025-.058-.041q-.6.329-1.229.621c.055.519.087,1.034.091,1.539-.026-.5-.084-1-.16-1.507-.138.064-.271.133-.41.193a21.4,21.4,0,0,1-6.763,1.69l0,.055-.007-.054c-.627.052-1.256.08-1.886.08Q92.944,58.094,92.345,58.059ZM171.22,24.168a24.22,24.22,0,0,0-11.093-1.953,20.707,20.707,0,0,0-15.3,7.649,24.442,24.442,0,0,1,7.612-8.9c6.5-4.6,14.149-5.027,20.191-1.862a18.563,18.563,0,0,1,7.663,7.643,22.008,22.008,0,0,1,2.619,10.019C181.338,31.34,177.122,26.742,171.22,24.168ZM76.992,26.6a18.623,18.623,0,0,1,7.816-7.479c6.1-3.049,13.73-2.493,20.123,2.195a24.148,24.148,0,0,1,7.294,8.736,20.655,20.655,0,0,0-15.431-7.833A24.22,24.22,0,0,0,85.7,24.168,20.346,20.346,0,0,0,74.188,36.185,21.862,21.862,0,0,1,76.992,26.6Zm116.8-2.79a35.811,35.811,0,0,0-13.86-15.859c-.365-.249-.756-.457-1.142-.671l-1.157-.641-1.194-.573-.595-.287-.612-.251-1.222-.5-1.248-.437c-.411-.157-.836-.278-1.259-.4s-.841-.268-1.272-.361a39.048,39.048,0,0,0-10.479-1.235,1.309,1.309,0,0,1-1.437-1.177A1.271,1.271,0,0,1,159.642.058a33.609,33.609,0,0,1,11.25,1.256c.46.115.9.286,1.356.428s.9.295,1.338.478l1.318.525,1.284.6.638.3.621.341,1.237.685,1.189.762c.4.255.792.5,1.163.794a34.125,34.125,0,0,1,7.857,7.851,37.506,37.506,0,0,1,5.012,9.675.061.061,0,0,1-.054.088A.066.066,0,0,1,193.792,23.806ZM61.75,23.76a37.5,37.5,0,0,1,5.011-9.675,34.164,34.164,0,0,1,7.858-7.851c.37-.291.768-.54,1.164-.794l1.189-.762,1.236-.685.622-.341.638-.3,1.284-.6,1.318-.525c.438-.183.887-.332,1.338-.478s.9-.313,1.355-.428A33.615,33.615,0,0,1,96.013.058,1.271,1.271,0,0,1,97.34,1.41,1.309,1.309,0,0,1,95.9,2.587,39.048,39.048,0,0,0,85.424,3.822c-.432.093-.847.242-1.272.361s-.847.243-1.26.4l-1.247.437-1.223.5-.611.251-.6.287-1.193.573-1.157.641c-.387.214-.777.422-1.142.671a35.805,35.805,0,0,0-13.86,15.859.066.066,0,0,1-.06.043A.061.061,0,0,1,61.75,23.76Z" transform="translate(7 5)"/></g></g><g transform="translate(0 0)"><path class="b" d="M125.014,216.4a35.809,35.809,0,0,1,13.859-15.86c.365-.249.756-.457,1.142-.67l1.157-.642,1.194-.572.6-.287.611-.251,1.222-.5,1.248-.437c.412-.156.836-.278,1.259-.4s.84-.267,1.272-.361a39.1,39.1,0,0,1,10.478-1.235A1.309,1.309,0,0,0,160.49,194a1.271,1.271,0,0,0-1.327-1.351,33.616,33.616,0,0,0-11.25,1.255c-.459.115-.9.286-1.355.428s-.9.295-1.337.478l-1.317.526-1.285.6-.64.305-.621.341-1.236.686-1.19.761c-.4.254-.793.5-1.163.794a34.157,34.157,0,0,0-7.858,7.851,37.508,37.508,0,0,0-5.012,9.675A.062.062,0,1,0,125.014,216.4Z" transform="translate(-63.151 -192.592)"/><path class="b" d="M217.821,195.178a39.1,39.1,0,0,1,10.479,1.235c.432.094.848.243,1.272.361s.848.244,1.259.4l1.248.437,1.222.5.611.251.6.287,1.194.572,1.157.642c.386.213.777.421,1.142.67a35.809,35.809,0,0,1,13.859,15.86.061.061,0,1,0,.114-.045,37.509,37.509,0,0,0-5.012-9.675,34.157,34.157,0,0,0-7.858-7.851c-.371-.29-.767-.539-1.163-.794l-1.19-.761-1.236-.686-.621-.341-.64-.305-1.285-.6-1.317-.526c-.438-.184-.888-.331-1.337-.478s-.9-.312-1.355-.428a33.615,33.615,0,0,0-11.25-1.255A1.271,1.271,0,0,0,216.383,194,1.309,1.309,0,0,0,217.821,195.178Z" transform="translate(-58.068 -192.592)"/><g transform="translate(74.188 17.056)"><path class="b" d="M148.2,215.854h0a24.221,24.221,0,0,1,11.093-1.954,20.659,20.659,0,0,1,15.431,7.833A24.146,24.146,0,0,0,167.426,213c-6.392-4.687-14.022-5.243-20.123-2.195a18.63,18.63,0,0,0-7.815,7.48,21.846,21.846,0,0,0-2.8,9.589A20.343,20.343,0,0,1,148.2,215.854Z" transform="translate(-136.684 -208.742)"/><path class="b" d="M218.905,213.908A24.221,24.221,0,0,1,230,215.862h0c5.9,2.574,10.118,7.171,11.7,12.594a22,22,0,0,0-2.62-10.018,18.553,18.553,0,0,0-7.662-7.643c-6.042-3.166-13.692-2.736-20.192,1.862a24.431,24.431,0,0,0-7.612,8.9A20.709,20.709,0,0,1,218.905,213.908Z" transform="translate(-132.966 -208.751)"/><path class="b" d="M165.228,249.295a24.226,24.226,0,0,1-11.094,1.955,22.213,22.213,0,0,1-9.481-2.712c.48.417.971.825,1.489,1.205,6.392,4.686,14.022,5.243,20.123,2.193a18.617,18.617,0,0,0,7.816-7.479,21.39,21.39,0,0,0,2.392-6.427A20.528,20.528,0,0,1,165.228,249.295Z" transform="translate(-136.241 -207.124)"/><path class="b" d="M223.742,251.255a24.221,24.221,0,0,1-11.093-1.955,20.5,20.5,0,0,1-11.285-11.361,21.411,21.411,0,0,0,2.209,6.19,18.544,18.544,0,0,0,7.662,7.644c6.041,3.166,13.692,2.735,20.191-1.863.577-.407,1.127-.843,1.66-1.3A22.23,22.23,0,0,1,223.742,251.255Z" transform="translate(-133.091 -207.129)"/></g><path class="b" d="M309.878,292.321c-.026-.7-.168-2.854-.288-3.779-.081-.627-.143-1.256-.242-1.881l-.174-1.13-.307-1.809-2.057-.622c-.321-.107-.641-.219-.956-.34-.632-.239-1.252-.508-1.857-.8a20.517,20.517,0,0,1-3.421-2.1c-1.072-.812-2.174-1.8-3.359-2.728s-2.4-1.82-3.652-2.654c-.629-.417-1.269-.828-1.966-1.222a12.1,12.1,0,0,0-1.131-.574,5.4,5.4,0,0,0-1.543-.454,4.867,4.867,0,0,0-1.707.133,6.14,6.14,0,0,0-1.409.527,8.655,8.655,0,0,0-2.2,1.636,11.761,11.761,0,0,0-2.7,4.357,10.779,10.779,0,0,0-.45,4.884,4.58,4.58,0,0,0-1.165,1.152,6.749,6.749,0,0,0-1.038,4.244,10.572,10.572,0,0,0,.575,2.823,8.231,8.231,0,0,0-1.531,2.625,7.887,7.887,0,0,0-.466,2.516,8.289,8.289,0,0,0,.4,2.564,9.108,9.108,0,0,0,1.1,2.3,10.519,10.519,0,0,0,1.6,1.933,12.028,12.028,0,0,0,2.5,1.848,8.429,8.429,0,0,0-.024,1.637,13.366,13.366,0,0,0,.366,2.255,21.652,21.652,0,0,0,1.444,4.095,14.785,14.785,0,0,0,.858,1.552c-.579.954-1.344,2.529-2.285,3.994a31.972,31.972,0,0,1-2.235,3.156c-.327.416-.629.743-.828.987l-.345.383-.343.384c-.214.23-.518.554-.891.93-.415.422-.929.9-1.491,1.4a56.637,56.637,0,0,1-12.087-2.877c-4.526-1.625-7.744-3.441-13.334-6.632-3.377-1.927-6.37-3.78-8.965-5.467.938-.4,2.054-.911,3.284-1.554,3.6-1.88,7.006-3.659,9.647-7.27,1.185-1.62,2.508-3.429,2.657-6.011.212-3.7-2.187-6.581-3.216-7.829a16.429,16.429,0,0,0-4.054-3.5,50.533,50.533,0,0,0-13.254-5.953,175.334,175.334,0,0,0-31.876-5.04,69.213,69.213,0,0,0-3.351,9.735c2.49.311,5.158.745,7.984,1.352a79.989,79.989,0,0,0-8.189-.592q-.211.814-.409,1.65a39.124,39.124,0,0,1,9.763,1.6c3.808,1.185,8.138,2.532,8.435,5.033.379,3.2-6.043,6.633-9.46,7.969a28.14,28.14,0,0,1-6.631,1.577,53.144,53.144,0,0,1-13.455.287c-1.087-.112-14.211-1.452-14.26-3.775-.037-1.729,7.177-3.585,13.471-4.179q-.26-1.682-.555-3.3a60.881,60.881,0,0,0-10.073-.167c-7.14.478-12.945.868-15.939,4.473-.518.625-1.432,1.924-2.048,1.712-.747-.257-.775-2.64-.375-4.135.436-1.628,2-4.51,11-7.364a61.271,61.271,0,0,1,15.566-2.751,69.077,69.077,0,0,0-3.048-8.8,73.274,73.274,0,0,0-14.172,2.559,93.26,93.26,0,0,0-13.308,5.578c-4.886,2.188-7.984,4.723-8.058,7.349-.136,4.775,9.7,9.962,20.249,12.826-16.46-2.5-27.775-7.879-27.879-14.3-.132-8.163,17.9-15.238,41.774-17.017-.07-.138-.138-.281-.209-.418-.457,0-.908,0-1.369,0-19.646.32-36.634,4.2-45.1,9.619a26.58,26.58,0,0,0-2.657,1.528c-.839.557-10.76,7.342-9.506,16.357a15.914,15.914,0,0,0,2.656,6.432,19.889,19.889,0,0,0,7.161,6.639,81.358,81.358,0,0,1-8.395,5.134c-2.586,1.352-5.486,2.629-5.968,2.839-.831.363-1.529.661-2.03.865l-.815.337-.819.33c-.5.207-1.208.477-2.054.8-1.694.645-3.96,1.435-6.248,2.15-2.843.9-5.73,1.64-7.487,2.186-.563-.493-1.077-.974-1.492-1.4-.373-.376-.677-.7-.891-.93l-.343-.384-.345-.383c-.2-.244-.5-.57-.828-.987a31.964,31.964,0,0,1-2.235-3.156c-.942-1.465-1.706-3.04-2.285-3.994a14.974,14.974,0,0,0,.858-1.552,21.577,21.577,0,0,0,1.444-4.095,13.362,13.362,0,0,0,.366-2.255,8.431,8.431,0,0,0-.024-1.637,12.029,12.029,0,0,0,2.5-1.848A10.567,10.567,0,0,0,98,301.985a9.14,9.14,0,0,0,1.1-2.3,8.289,8.289,0,0,0,.4-2.564,7.889,7.889,0,0,0-.466-2.516,8.231,8.231,0,0,0-1.531-2.625,10.572,10.572,0,0,0,.575-2.823,6.749,6.749,0,0,0-1.038-4.244,4.58,4.58,0,0,0-1.165-1.152,10.779,10.779,0,0,0-.45-4.884,11.761,11.761,0,0,0-2.7-4.357,8.654,8.654,0,0,0-2.2-1.636,6.14,6.14,0,0,0-1.409-.527,4.867,4.867,0,0,0-1.707-.133,5.4,5.4,0,0,0-1.543.454,12.1,12.1,0,0,0-1.131.574c-.7.395-1.337.805-1.966,1.222-1.248.834-2.474,1.714-3.652,2.654s-2.286,1.916-3.359,2.728a20.514,20.514,0,0,1-3.421,2.1c-.6.293-1.224.563-1.857.8-.316.121-.635.233-.956.34l-2.057.622-.307,1.809-.174,1.13c-.1.625-.16,1.254-.242,1.881q-.2,1.886-.288,3.779a56.182,56.182,0,0,0,.179,7.575,53.047,53.047,0,0,0,3.452,14.75c.458,1.183,1.008,2.33,1.521,3.49.593,1.117,1.162,2.266,1.781,3.356a52.865,52.865,0,0,0,4.226,6.3,49.266,49.266,0,0,0,11.054,10.413c1.072.687,2.132,1.4,3.255,2,1.1.642,2.238,1.218,3.4,1.748s2.337,1.013,3.533,1.448q.9.323,1.808.613l1,.3,1.765.491.221.06.055.015.035-.039.068-.079.274-.315.547-.629.916-1.048c.4-.449.8-.9,1.205-1.338.81-.888,1.645-1.75,2.488-2.605q2.538-2.557,5.281-4.9a88.521,88.521,0,0,1,21.609-13.643c.13.253.252.507.4.761a23.4,23.4,0,0,0,4.753,5.453,32,32,0,0,0,7.549,5.732c1.46.762,1.813.769,2.377,1.4,1.793,2,.3,4.274,1.677,7.409,1.05,2.394,2.225,1.767,3.356,4.195,1.341,2.88-.228,3.946.839,7.549a19.72,19.72,0,0,0,3.495,6.152c1.607,2.164,2.215,2.351,2.8,3.914.678,1.824.165,2.416.979,4.894a11.187,11.187,0,0,0,1.677,3.495c1.287,1.723,2.093,1.57,2.657,2.936.612,1.485-.186,2.038.558,3.495a20.429,20.429,0,0,0,1.818,2.238c1.2,1.5,1.377,1.9,1.258,2.237-.207.587-1.1.382-1.677.978-.84.86-.141,2.465.28,4.614a16.944,16.944,0,0,1,0,7.409,28.559,28.559,0,0,1-1.818,4.614,62.783,62.783,0,0,1,9.647-3.635,6.864,6.864,0,0,0,3.075-1.538,6.3,6.3,0,0,0,1.539-2.237,11.662,11.662,0,0,0,3.775-1.4A5.385,5.385,0,0,0,189.369,389a4.563,4.563,0,0,0,.558-2.516,7.6,7.6,0,0,0,3.216.419,8.688,8.688,0,0,0,4.334-1.818,11.379,11.379,0,0,0,2.936-2.935,6.847,6.847,0,0,0,1.258-2.8,6.135,6.135,0,0,0,0-2.1,16.536,16.536,0,0,0,3.495-1.119,11.274,11.274,0,0,0,5.453-4.194,10.436,10.436,0,0,0,1.258-3.356,21.855,21.855,0,0,0,.419-4.613c.034-1.225.02-2.239,0-2.937a25.7,25.7,0,0,0,7.69-1.818,18.165,18.165,0,0,0,6.571-4.054,12.268,12.268,0,0,0,3.495-5.591,12.141,12.141,0,0,0,.28-4.474,19.273,19.273,0,0,0-1.4-4.753c-.32-.819-.62-1.489-.838-1.957a35.848,35.848,0,0,0,7.129-3.076,21.649,21.649,0,0,0,5.872-4.334,13.757,13.757,0,0,0,3.495-5.732,12.624,12.624,0,0,0,.456-2.616,88.339,88.339,0,0,1,16.773,11.3q2.736,2.343,5.281,4.9c.843.855,1.678,1.717,2.488,2.605.409.44.806.89,1.205,1.338l.916,1.048.547.629.274.315.068.079.035.039.055-.015.221-.06,1.765-.492,1-.3q.909-.29,1.808-.613,1.794-.652,3.533-1.448c1.158-.53,2.295-1.106,3.4-1.748,1.123-.6,2.183-1.311,3.255-2a49.266,49.266,0,0,0,11.054-10.413,52.949,52.949,0,0,0,4.226-6.3c.619-1.089,1.188-2.239,1.781-3.356,0,0,.82-1.7,1.52-3.49C308.955,307.723,310,295.606,309.878,292.321ZM112.2,331.235q-2.845,2.437-5.49,5.092c-.876.889-1.744,1.786-2.585,2.708-.424.458-.839.925-1.253,1.391l-.383.437-.76-.233q-.841-.266-1.671-.567-1.658-.6-3.263-1.337a34.718,34.718,0,0,1-3.134-1.614c-1.037-.554-2.013-1.211-3-1.842A48.042,48.042,0,0,1,73.39,313.342a49.472,49.472,0,0,1-3.218-13.762,52.832,52.832,0,0,1-.169-7.1q.085-1.777.269-3.546c.078-.587.134-1.177.227-1.762l.1-.686.041-.014c.369-.122.737-.251,1.1-.391.728-.275,1.446-.587,2.151-.929a24.082,24.082,0,0,0,4.009-2.463c1.247-.949,2.317-1.911,3.422-2.777s2.24-1.694,3.412-2.478c.584-.387,1.171-.762,1.741-1.084a8.95,8.95,0,0,1,.815-.417,2.18,2.18,0,0,1,.537-.179,1.64,1.64,0,0,1,.456.059,2.568,2.568,0,0,1,.629.239,5.14,5.14,0,0,1,1.285.969,8.285,8.285,0,0,1,1.866,3,7.151,7.151,0,0,1,.331,2.894,9.453,9.453,0,0,0-1.246.147c-.3.056-.584.125-.852.192s-.588.149-.877.257a9.657,9.657,0,0,0-3.067,1.783,10.465,10.465,0,0,1-2.577,1.627,10.93,10.93,0,0,1-6.2.456,11.486,11.486,0,0,0,6.537.608,11.844,11.844,0,0,0,3.16-1.292,7.71,7.71,0,0,1,2.711-1.023c.228-.044.457-.051.7-.077.263-.02.507-.035.747-.037a6.037,6.037,0,0,1,1.338.111,2.388,2.388,0,0,1,.969.4,1.331,1.331,0,0,1,.455.6,3.435,3.435,0,0,1,.014,2.007,6.244,6.244,0,0,1-.41,1.141,7.085,7.085,0,0,0-2.434-.051,10.087,10.087,0,0,0-2.186.592,7.571,7.571,0,0,0-1.951,1.144c-.568.446-1.077.888-1.63,1.287a16.36,16.36,0,0,1-1.729,1.092,17.49,17.49,0,0,1-3.842,1.541,17.767,17.767,0,0,0,4.077-1.034,17.432,17.432,0,0,0,1.939-.891c.63-.337,1.234-.731,1.812-1.073a6.3,6.3,0,0,1,1.756-.741,8.626,8.626,0,0,1,1.892-.25,4.762,4.762,0,0,1,3.231,1.088,5.183,5.183,0,0,1,1.629,2.876,4.647,4.647,0,0,1-.388,3.1,7.589,7.589,0,0,1-4.42,3.642,4.631,4.631,0,0,0-1.3-.417,6.746,6.746,0,0,0-.757-.057c.045-.1.095-.2.136-.31a9.417,9.417,0,0,0,.591-2.605,8.183,8.183,0,0,0,.019-1.172,8.069,8.069,0,0,1-.439,1.058,8.486,8.486,0,0,1-1.363,2,7.4,7.4,0,0,1-1.785,1.412l-.111.054-.206.064-.282.1c-.013.005-.013.037-.008.081l-.044.022-.263.1-.2.2c-.123.124-.317.274-.548.474a7.971,7.971,0,0,1-2.01,1.1,9.55,9.55,0,0,1-2.374.546,7.952,7.952,0,0,1-1.145.046,8.008,8.008,0,0,0,1.105.386,10.454,10.454,0,0,0,2.627.4,9.916,9.916,0,0,0,2.8-.345c.377-.125.7-.226.924-.319l.114-.051c.032.052.056.081.066.077s.3-.134.808-.3a5.421,5.421,0,0,1,1.976-.3,1.576,1.576,0,0,1,.911.318,1.767,1.767,0,0,1,.635.967,5.191,5.191,0,0,1,.24,1.668,11.843,11.843,0,0,1-.143,1.939,22.606,22.606,0,0,1-.93,3.869,17.089,17.089,0,0,1-1.458,3.155c-1.048,1.775-2.008,2.833-1.858,2.989.12.137,1.361-.646,2.781-2.338.1-.115.192-.246.289-.369a16.861,16.861,0,0,0,1.351,3.731,22.673,22.673,0,0,0,2.2,3.591c.342.469.662.835.876,1.105l.373.424.381.417c.24.248.581.6,1,.992a22.555,22.555,0,0,0,3.329,2.575c2.57,1.671,5.49,2.532,5.7,1.978s-2.308-1.9-4.5-3.678c-.136-.107-.267-.216-.4-.325a52.065,52.065,0,0,0,6.968-1.321c2.371-.6,4.712-1.346,6.458-1.973.872-.316,1.6-.584,2.113-.791l.84-.334.833-.35c.509-.212,1.221-.526,2.065-.913,2.782-1.277,5.993-3.113,5.993-3.113,3.337-1.907,6.321-3.925,8.262-5.293a19.006,19.006,0,0,0,.632,3.685A92.124,92.124,0,0,0,112.2,331.235Zm72.6,55.571a3.627,3.627,0,0,1-2.936.745,3.555,3.555,0,0,1-2.144-1.445,5.24,5.24,0,0,1,.186,3.915,11.3,11.3,0,0,1-6.058,4.566,7.267,7.267,0,0,0,.513-2.936,12.812,12.812,0,0,0-.513-2.516c-.74-3.081-.838-3.783-.419-4.241a1.418,1.418,0,0,1,1.212-.419,1.448,1.448,0,0,1,.838.559c1.09,1.293,2.162,2.687,2.424,3.029a5.552,5.552,0,0,0-.28-2.61,7.494,7.494,0,0,0-1.957-2.609c-.858-.964-1.706-2.695-1.445-6.058a9.137,9.137,0,0,0,.979,2.563,10.937,10.937,0,0,0,2.8,3.076c1.392,1.17,2.088,1.755,3.029,1.957a6.887,6.887,0,0,0,3.682-.28c.65-.242.958-.481,1.165-.326C186.3,384.1,185.923,385.827,184.8,386.806Zm11.692-7.065a3.525,3.525,0,0,1-2.613,1.18,11.47,11.47,0,0,1-5.636-.923,44.038,44.038,0,0,1-5.272-2.237,61.5,61.5,0,0,1-6.548-3.842,29.339,29.339,0,0,0,3.692,2.872c.844.553,1.625,1,2.369,1.425.389.223,1.431.813,2.834,1.525,1.018.517,1.756.892,2.808,1.334.762.32,1.414.559,1.893.726a6.387,6.387,0,0,1-.783.017,7.292,7.292,0,0,1-2.3-.518c-1.6-.57-2.4-.856-2.718-.992a34.456,34.456,0,0,1-4.492-2.384,42.6,42.6,0,0,1-5.148-3.756,21.555,21.555,0,0,1-4.306-4.661,6.468,6.468,0,0,1-1.158-3,5.869,5.869,0,0,1,.15-1.986,19.926,19.926,0,0,0,1.141,2.039,21.72,21.72,0,0,0,2.484,3.147,27.289,27.289,0,0,0,4.59,3.885,27.9,27.9,0,0,0,10.1,4.509c.943.213,1.755.346,2.374.432a21.025,21.025,0,0,1-3.6-1.764c-.393-.241-.764-.487-1.114-.734,1.083.385,2.009.674,2.71.882a15.082,15.082,0,0,0,2.823.657,10.394,10.394,0,0,0,2.076-.006,4.5,4.5,0,0,0,2.232-.649,2.419,2.419,0,0,0,.678-.654c.268-.4.262-.686.391-.7.218-.025.556.767.686,1.553A3.532,3.532,0,0,1,196.494,379.741Zm10.464-11.265c-.848,1.38-2.567,1.734-3.957,2-2.584.494-5.017.218-9.063-.833a75.4,75.4,0,0,1-8.687-2.817,104.371,104.371,0,0,1-10.95-5.077,49.22,49.22,0,0,0,6.283,3.91c1.421.741,2.723,1.328,3.967,1.888.65.294,2.39,1.07,4.719,1.995,1.689.669,2.915,1.156,4.647,1.711,1.256.4,2.325.7,3.109.9a10.665,10.665,0,0,1-1.238.1,12.462,12.462,0,0,1-3.725-.55c-2.623-.693-3.934-1.041-4.454-1.214a58.705,58.705,0,0,1-7.474-3.111,71.284,71.284,0,0,1-8.722-5.081,35.07,35.07,0,0,1-7.526-6.508,9.746,9.746,0,0,1-2.29-4.335,8.207,8.207,0,0,1-.064-2.961,31.076,31.076,0,0,0,2.116,2.918,34.978,34.978,0,0,0,4.411,4.432,45.484,45.484,0,0,0,7.856,5.327,47.827,47.827,0,0,0,16.679,5.73c1.524.227,2.831.347,3.823.415a35.99,35.99,0,0,1-5.973-2.274c-.659-.321-1.284-.65-1.874-.983,1.773.468,3.282.81,4.424,1.05a25.669,25.669,0,0,0,4.567.706,17.514,17.514,0,0,0,3.287-.206,7.209,7.209,0,0,0,3.436-1.177,3.556,3.556,0,0,0,.973-1.037c.364-.62.31-1.043.511-1.077.343-.058,1,1.086,1.324,2.239A4.935,4.935,0,0,1,206.958,368.476Zm18.481-19.138c-.744,2.334-3.009,3.431-4.846,4.287-3.415,1.593-6.86,1.991-12.769,1.771a99.469,99.469,0,0,1-12.862-1.3,138.756,138.756,0,0,1-16.684-3.914,66.389,66.389,0,0,0,9.88,3.727c2.189.629,4.168,1.07,6.058,1.491.989.221,3.63.8,7.13,1.4,2.538.435,4.383.752,6.943,1,1.857.182,3.424.263,4.567.3a14.445,14.445,0,0,1-1.678.559,16.415,16.415,0,0,1-5.313.419c-3.834-.162-5.751-.242-6.524-.326a77.638,77.638,0,0,1-11.277-2.144,95.623,95.623,0,0,1-13.608-4.66c-6.477-2.794-9.964-5.16-12.4-7.177a14.615,14.615,0,0,1-4.5-5.685,13.289,13.289,0,0,1-1-4.381,45.294,45.294,0,0,0,3.821,3.635,49.207,49.207,0,0,0,7.456,5.126,61.714,61.714,0,0,0,12.489,5.313,63.073,63.073,0,0,0,24.792,2.983c2.174-.17,4.015-.424,5.406-.653a47.581,47.581,0,0,1-8.947-1.4c-1.008-.259-1.972-.54-2.89-.839,2.592.108,4.781.114,6.432.094a33.9,33.9,0,0,0,6.524-.467,23.523,23.523,0,0,0,4.473-1.4c3.122-1.324,4.108-2.533,4.381-2.89a5.485,5.485,0,0,0,1.025-1.864c.31-1.041.106-1.653.374-1.77.455-.2,1.711,1.284,2.516,2.889C225.01,344.654,226.185,347,225.439,349.338Zm14.61-25c-1.068,3.99-5.52,6.438-10.625,8.248-8.482,3.007-19.656,4.564-40.544,2.028-6.353-.772-12.038-1.732-16.94-2.7,2.832.868,6.58,1.906,11.044,2.843a132.662,132.662,0,0,0,16.941,2.377c5.4.412,9.746.415,16.008.419,2.91,0,5.34-.035,7.06-.07a35.834,35.834,0,0,1-10.135,2.586,55.42,55.42,0,0,1-6.781.14c-7.081-.084-10.621-.127-12.023-.21a99.244,99.244,0,0,1-18.734-3.146,104.671,104.671,0,0,1-15.728-4.894,74.126,74.126,0,0,1-13.771-7.829c-2.048-1.471-4.709-3.563-5.663-7.06a10.141,10.141,0,0,1-.349-2.867c.477.562,1.183,1.352,2.1,2.238,1.328,1.286,4.709,4.336,12.792,7.829a79.434,79.434,0,0,0,10.276,3.634,93.149,93.149,0,0,0,16.5,2.8,122.666,122.666,0,0,0,15.519.909,102.881,102.881,0,0,0,22.09-2.727,50.839,50.839,0,0,1-16.847-1.258c4.81-.242,8.851-.664,11.883-1.048,9.315-1.181,12.066-2.386,13.981-3.495,2.586-1.5,4.782-2.771,6.081-5.382.779-1.567.873-2.886,1.748-3.076,1.288-.28,3.024,2.164,3.775,4.124A10.111,10.111,0,0,1,240.049,324.336Zm-4.078-15.681a75.427,75.427,0,0,1-10.439,2.237c-5.509.893-11.726,1.658-18.92,2.144-1.894.128-7.506.481-14.959.512-7.088.03-13.329-.244-18.5-.606,9.093,1.127,16.575,1.531,21.949,1.678,5.286.146,4.932-.055,20.411,0,1.522.005,4.7.018,8.948-.14,3.155-.117,5.761-.286,7.549-.419-2.594.909-5.951,1.971-9.926,2.936a110.662,110.662,0,0,1-13.7,2.377,149.947,149.947,0,0,1-27.4.28,161.273,161.273,0,0,1-24.466-3.775,100.838,100.838,0,0,1-15.938-5.453,21.768,21.768,0,0,1-7.829-5.172c-1.444-1.543-3.632-3.88-3.635-7.13a10.55,10.55,0,0,1,1.4-4.894,10.151,10.151,0,0,1,.73-1.077c4.544,6.795,22.126,11.812,43.865,12.335,1.461.251,2.9.449,4.29.578a118.6,118.6,0,0,0,17.326-.12c6.877-.463,13.15-1.391,16.787-1.93,4.635-.686,6.952-1.029,8.53-1.427a53.769,53.769,0,0,0,5.513-1.743c5.762-1.908,9.942-4.282,11.883-6.9a4.381,4.381,0,0,0,1.218-2.73,2.775,2.775,0,0,0-.031-.279c.007-.116.032-.23.03-.346-.041-3.048-3.129-5.83-8.341-8.08,2.028.612,4.271,1.323,6.921,2.163a32.312,32.312,0,0,1,11.185,6.664,7.677,7.677,0,0,1,2.75,4.894,6.682,6.682,0,0,1-.839,3.541c-1.178,2.343-3.114,3.653-5.452,4.986A59.333,59.333,0,0,1,235.971,308.654Zm70.191-9.075a49.471,49.471,0,0,1-3.218,13.762,48.043,48.043,0,0,1-17.272,21.927c-.99.631-1.968,1.288-3.005,1.842a34.556,34.556,0,0,1-3.133,1.614q-1.6.738-3.263,1.337-.83.3-1.671.567l-.76.233-.383-.437c-.414-.467-.829-.933-1.253-1.391-.841-.922-1.709-1.819-2.585-2.708q-2.638-2.658-5.49-5.092a91.978,91.978,0,0,0-19.5-12.8,14.731,14.731,0,0,0-2.129-4.371c-.066-.1-.131-.184-.2-.277,3.1,2,5.868,3.6,8.1,4.8a80.5,80.5,0,0,0,11.844,5.5,65.97,65.97,0,0,0,6.458,1.973,63.27,63.27,0,0,0,6.969,1.321c-.134.109-.265.218-.4.325-2.19,1.779-4.714,3.135-4.5,3.678s3.128-.307,5.7-1.978a22.555,22.555,0,0,0,3.329-2.575c.423-.4.764-.744,1-.992l.381-.417.373-.424c.214-.27.534-.637.876-1.105a22.672,22.672,0,0,0,2.2-3.591,16.859,16.859,0,0,0,1.351-3.731c.1.123.193.254.289.369,1.421,1.692,2.661,2.475,2.781,2.338.15-.155-.81-1.214-1.858-2.989a17.092,17.092,0,0,1-1.458-3.155,22.6,22.6,0,0,1-.93-3.869,11.84,11.84,0,0,1-.142-1.939,5.191,5.191,0,0,1,.24-1.668,1.767,1.767,0,0,1,.635-.967,1.576,1.576,0,0,1,.911-.318,5.418,5.418,0,0,1,1.976.3c.51.168.808.3.808.3s.035-.025.066-.077l.114.051c.221.093.547.194.924.319a9.915,9.915,0,0,0,2.8.345,10.461,10.461,0,0,0,2.627-.4,8.006,8.006,0,0,0,1.105-.386,7.952,7.952,0,0,1-1.145-.046,9.549,9.549,0,0,1-2.374-.546,7.97,7.97,0,0,1-2.01-1.1c-.231-.2-.424-.35-.548-.474l-.2-.2-.263-.1-.044-.022c0-.044,0-.076-.008-.081l-.282-.1-.206-.064-.111-.054a7.4,7.4,0,0,1-1.785-1.412,8.485,8.485,0,0,1-1.363-2,8.073,8.073,0,0,1-.439-1.058,8.185,8.185,0,0,0,.019,1.172,9.418,9.418,0,0,0,.591,2.605c.041.106.091.207.136.31a6.746,6.746,0,0,0-.757.057,4.63,4.63,0,0,0-1.3.417,7.592,7.592,0,0,1-4.42-3.642,4.647,4.647,0,0,1-.388-3.1,5.183,5.183,0,0,1,1.629-2.876,4.762,4.762,0,0,1,3.231-1.088,8.625,8.625,0,0,1,1.892.25,6.3,6.3,0,0,1,1.756.741c.578.342,1.182.737,1.812,1.073a17.431,17.431,0,0,0,1.939.891,17.766,17.766,0,0,0,4.077,1.034,17.49,17.49,0,0,1-3.842-1.541,16.486,16.486,0,0,1-1.73-1.092c-.552-.4-1.062-.84-1.629-1.287a7.57,7.57,0,0,0-1.951-1.144,10.088,10.088,0,0,0-2.186-.592,7.085,7.085,0,0,0-2.434.051,6.245,6.245,0,0,1-.41-1.141,3.434,3.434,0,0,1,.014-2.007,1.331,1.331,0,0,1,.455-.6,2.388,2.388,0,0,1,.969-.4,6.1,6.1,0,0,1,1.338-.111c.241,0,.484.017.747.037.245.026.474.033.7.077a7.71,7.71,0,0,1,2.711,1.023,11.844,11.844,0,0,0,3.16,1.292,11.486,11.486,0,0,0,6.537-.608,10.929,10.929,0,0,1-6.2-.456,10.466,10.466,0,0,1-2.577-1.627,9.676,9.676,0,0,0-3.067-1.783c-.288-.108-.6-.177-.877-.257s-.556-.136-.852-.192a9.452,9.452,0,0,0-1.246-.147,7.151,7.151,0,0,1,.331-2.894,8.285,8.285,0,0,1,1.866-3,5.14,5.14,0,0,1,1.285-.969,2.568,2.568,0,0,1,.629-.239,1.637,1.637,0,0,1,.456-.059,2.166,2.166,0,0,1,.537.179,8.952,8.952,0,0,1,.815.417c.57.322,1.157.7,1.741,1.084,1.172.784,2.314,1.6,3.412,2.478s2.176,1.828,3.422,2.777a24.081,24.081,0,0,0,4.009,2.463c.705.342,1.423.653,2.151.929.364.139.731.268,1.1.391l.041.014.1.686c.093.585.149,1.175.226,1.762.126,1.178.213,2.361.27,3.546A52.826,52.826,0,0,1,306.162,299.58Z" transform="translate(-66.4 -188.218)"/><path class="b" d="M167.92,252.987a19.167,19.167,0,0,1-6.1,2.145,29.712,29.712,0,0,1,3.385,1.643c9.065,5.147,18.661,18.488,21.939,45.592.614.047,1.247.087,1.915.1.926.024,1.8.011,2.63-.027,3.323-26.828,12.714-40.548,21.732-45.668a29.613,29.613,0,0,1,3.384-1.643,19.161,19.161,0,0,1-6.1-2.145,18.594,18.594,0,0,1-7.455-7.688,54.2,54.2,0,0,1-.9,7.559c-1.888,10.046-4.847,12.085-10.171,30.977-1.176,4.17-2.122,7.939-2.87,11.149-.749-3.21-1.7-6.978-2.87-11.149-5.325-18.892-8.284-20.932-10.172-30.977a54.2,54.2,0,0,1-.9-7.559A18.6,18.6,0,0,1,167.92,252.987Z" transform="translate(-61.099 -189.664)"/><path class="b" d="M198,294.606c.057-.265-1.887-1.088-4.976-1.945-.074.444-.144.9-.212,1.346C196.02,294.373,197.947,294.866,198,294.606Z" transform="translate(-59.377 -187.032)"/><path class="b" d="M187.624,283.35c.265.01.538.022.811.035.154-.57.305-1.141.464-1.708.83-2.941,1.6-5.471,2.318-7.692-2.236-.021-4.35.013-6.339.087.711,2.2,1.471,4.7,2.291,7.605C187.325,282.232,187.473,282.792,187.624,283.35Z" transform="translate(-59.818 -188.07)"/><path class="b" d="M181.789,285.967c-.068-.282-.137-.556-.206-.835-2.776.45-5.312,1.008-7.57,1.6C176.933,286.363,179.546,286.124,181.789,285.967Z" transform="translate(-60.422 -187.451)"/><g transform="translate(75.691 25.299)"><path class="c" d="M149.1,218.333h0a21.506,21.506,0,0,1,9.848-1.735c10.288.621,17.7,8.476,16.533,17.512-.753,5.8-4.815,10.834-10.868,13.473a21.513,21.513,0,0,1-9.849,1.736c-10.287-.621-17.7-8.476-16.532-17.512.752-5.8,4.814-10.834,10.868-13.474" transform="translate(-138.107 -216.559)"/><g transform="translate(2.901 2.382)"><path class="d" d="M143.807,236.293a5.807,5.807,0,0,1,.462-.392l0,0,0,0a6.791,6.791,0,0,1,1.916-1.031,8.287,8.287,0,0,1,2.373-.437c-.051-.107-.1-.214-.145-.322a7.6,7.6,0,0,0-2.338.493,6.94,6.94,0,0,0-1.979,1.176,1.13,1.13,0,0,0-.405-.159,2.211,2.211,0,0,0-.625,0,3.532,3.532,0,0,0-1.141.391,10.37,10.37,0,0,1,1.167-.269,2.56,2.56,0,0,1,.6-.03,1.346,1.346,0,0,1,.378.092c-.131.113-.263.226-.384.352a5.539,5.539,0,0,0-1.388,2.528A5.4,5.4,0,0,1,143.807,236.293Z" transform="translate(-140.797 -217.966)"/><path class="d" d="M142.711,230.175a3.129,3.129,0,0,0,.31.382,3.494,3.494,0,0,0,1.578.85l-.007.022.012-.021a4.371,4.371,0,0,0,.729.132,6.443,6.443,0,0,0,2.482-.269l.108-.036c.006-.111.008-.221.02-.331-.079.029-.158.06-.238.086a6.668,6.668,0,0,1-2.361.3,4.271,4.271,0,0,1-.621-.08,1.5,1.5,0,0,0,.111-.752,1.807,1.807,0,0,0-.479-.926,2.344,2.344,0,0,1,.365.934,1.5,1.5,0,0,1-.05.728,3.31,3.31,0,0,1-1.532-.749,3.4,3.4,0,0,1-1.06-2.055,3.333,3.333,0,0,0,.622,1.769,4.37,4.37,0,0,1-.879-.013,3.814,3.814,0,0,1-.965-.2A2.523,2.523,0,0,0,142.711,230.175Z" transform="translate(-140.856 -218.284)"/><path class="d" d="M142.02,240.968a16.221,16.221,0,0,1,2.661-.924A5.541,5.541,0,0,0,142.02,240.968Z" transform="translate(-140.791 -217.637)"/><path class="d" d="M148.034,229.008l.278.1c.038-.092.076-.183.117-.272l-.291-.106a11.7,11.7,0,0,1-1.556-.677,5.963,5.963,0,0,0,.388-1.707,5.585,5.585,0,0,0-.242-1.844,8.489,8.489,0,0,1,.1,1.831,5.087,5.087,0,0,1-.091.9c-.065.265-.117.536-.164.81a7.025,7.025,0,0,1-.632-.376,5.273,5.273,0,0,1-2.09-4.046,6.765,6.765,0,0,0,.425,2.306,4.317,4.317,0,0,0,1.51,1.934A9.016,9.016,0,0,0,148.034,229.008Z" transform="translate(-140.69 -218.548)"/><path class="d" d="M157.233,224.555c.094.016.188.026.282.044l.06.015a8.91,8.91,0,0,0-.734-2.306c.1-.178.207-.357.3-.544a5.1,5.1,0,0,0,.42-2.787c-.11.622-.2,1.228-.362,1.817-.094.484-.271.929-.406,1.4a7.193,7.193,0,0,0-.461-.788,10.715,10.715,0,0,0-2.516-2.595,11.389,11.389,0,0,1,2.342,2.708A7.986,7.986,0,0,1,157.233,224.555Z" transform="translate(-140.136 -218.816)"/><path class="d" d="M161.787,227.024c.095.1.193.19.284.291.094-.212.185-.425.262-.646a10.4,10.4,0,0,0,.515-2.178,4.693,4.693,0,0,0,2.076-.642,5.285,5.285,0,0,0,1.794-1.809,9.024,9.024,0,0,1-1.924,1.595,6.523,6.523,0,0,1-1.936.778,12.548,12.548,0,0,0-.326-4.7,13.936,13.936,0,0,1,.23,2.9,5.848,5.848,0,0,1-1.456-1.3,5.1,5.1,0,0,1-.9-1.9,3.557,3.557,0,0,0,.745,2.029,3.92,3.92,0,0,0,1.614,1.2c-.006.191-.009.382-.024.572a11.34,11.34,0,0,1-.156,1.261c-.042.009-.083.021-.127.03.041,0,.081-.005.122-.005a10.2,10.2,0,0,1-.561,2.013C161.945,226.688,161.865,226.855,161.787,227.024Z" transform="translate(-139.77 -218.783)"/><path class="d" d="M148.916,236.995l1.025-.57c-.084-.088-.175-.171-.255-.263l-.942.538a15.107,15.107,0,0,0-2.352,1.611,8.1,8.1,0,0,0-1.847,2.2,9.6,9.6,0,0,0-.976,2.772,8.542,8.542,0,0,1,3-4.75A17.759,17.759,0,0,1,148.916,236.995Z" transform="translate(-140.705 -217.852)"/><path class="d" d="M149.588,224.225l.013-.022a15.432,15.432,0,0,0,1.236,1.349c.075.072.157.136.233.207.084-.054.166-.112.252-.164-.1-.09-.2-.175-.293-.267-.454-.43-.885-.883-1.3-1.35.1-.183.211-.364.306-.555a5.1,5.1,0,0,0,.42-2.788c-.11.623-.2,1.229-.362,1.818-.1.5-.285.966-.421,1.463q-.777-.872-1.495-1.811A13.4,13.4,0,0,0,149.6,224.2Z" transform="translate(-140.449 -218.715)"/><path class="d" d="M154.283,244.12a14.632,14.632,0,0,0,1.574-4.84c.023-.108.048-.217.075-.321-.114,0-.229-.013-.344-.021-.019.079-.037.158-.056.237a15.129,15.129,0,0,1-1.471,4.792,7.982,7.982,0,0,1-1.274,1.737,6.8,6.8,0,0,0-2.61-.536,7.163,7.163,0,0,0-2.661.487,13.691,13.691,0,0,1,2.68-.261,10.7,10.7,0,0,1,2.576.327,9.349,9.349,0,0,1-2.115,1.64A8.028,8.028,0,0,0,154.283,244.12Z" transform="translate(-140.486 -217.698)"/><path class="d" d="M167.38,234.048v-.017l0,.015a5.3,5.3,0,0,0-.746-.4,8.4,8.4,0,0,0-2.3-.568c-.211-.031-.423-.058-.631-.091-.01.046-.014.092-.023.138s-.031.1-.042.144c.231.035.46.062.688.093a9.09,9.09,0,0,1,2.237.508,4.294,4.294,0,0,1,.771.382,6.989,6.989,0,0,0-.134,1.986,6.794,6.794,0,0,0,.177,1.123c.1.369.209.736.325,1.1-.062-.375-.131-.744-.209-1.11a8.045,8.045,0,0,1-.139-1.106,12.119,12.119,0,0,1,.014-1.968,7.481,7.481,0,0,1,2.511,2.942,9.106,9.106,0,0,0-1.28-2.108A5.173,5.173,0,0,0,167.38,234.048Z" transform="translate(-139.59 -218.029)"/><path class="d" d="M148.708,241.747a5.18,5.18,0,0,0-.149-2.139,4.564,4.564,0,0,0-1.077-1.913,6.86,6.86,0,0,1,.9,1.952A9.139,9.139,0,0,1,148.708,241.747Z" transform="translate(-140.488 -217.767)"/><path class="d" d="M170.795,230.334a7.328,7.328,0,0,0-2.268-.594,6.686,6.686,0,0,0-2.276.217,6.806,6.806,0,0,0-.705.233,4.321,4.321,0,0,1,1.929-2.023,9.336,9.336,0,0,1,2.835-.9,6.025,6.025,0,0,0-2.972.662,4.167,4.167,0,0,0-1.182.974,3.38,3.38,0,0,0-.642,1.3,8.913,8.913,0,0,0-1.327.648c-.13.078-.257.163-.381.248.013.118.014.237.021.356.166-.125.337-.244.515-.353a8.971,8.971,0,0,1,1.991-.912,6.554,6.554,0,0,1,1.364-.267,4.6,4.6,0,0,0,.72,1.838,4.036,4.036,0,0,0,.7.774,3.245,3.245,0,0,0,.869.525,4.742,4.742,0,0,1-1.445-1.383,6.774,6.774,0,0,1-.83-1.754A7.117,7.117,0,0,1,170.795,230.334Z" transform="translate(-139.581 -218.347)"/><path class="d" d="M167.244,240.361a1.128,1.128,0,0,0-.46.014,9.149,9.149,0,0,0-1.79-1.982,9.564,9.564,0,0,0-2.865-1.621c-.143-.051-.29-.09-.437-.131-.1.1-.207.2-.316.29a6.083,6.083,0,0,1,.648.179,9.972,9.972,0,0,1,2.792,1.52,8.916,8.916,0,0,1,1.759,1.806h0c.138.189.271.382.392.585a6.822,6.822,0,0,1,1.015,3.082,6.93,6.93,0,0,0-.854-3.176c-.1-.178-.209-.346-.32-.515a1.454,1.454,0,0,1,.417.048,3,3,0,0,1,.615.257,12.517,12.517,0,0,1,1.156.724,4.517,4.517,0,0,0-1.1-.842A2.62,2.62,0,0,0,167.244,240.361Z" transform="translate(-139.716 -217.826)"/><path class="d" d="M155.68,238.959a8.494,8.494,0,0,1,.285,1.251c.151.867.246,1.742.358,2.616.051.425.094.852.14,1.277a4.714,4.714,0,0,0-.908,1.767,5.3,5.3,0,0,0-.154,1.052,4.413,4.413,0,0,0,.1,1.077,7.032,7.032,0,0,1,.229-2.065,8.171,8.171,0,0,1,.739-1.813c.145,1.319.28,2.641.425,3.963q-.082-2.627-.313-5.261-.109-1.319-.313-2.639a9.263,9.263,0,0,0-.264-1.221C155.893,238.964,155.786,238.961,155.68,238.959Z" transform="translate(-140.048 -217.697)"/><path class="d" d="M163.621,244.429a8.908,8.908,0,0,0-1.429-3.033,19.375,19.375,0,0,0-2.086-2.319,5.232,5.232,0,0,1-.488-.567,1.133,1.133,0,0,1-.174-.343c-.055.025-.1.057-.16.08-.028.013-.057.022-.086.034a1.7,1.7,0,0,0,.242.449,5.8,5.8,0,0,0,.532.609,21.819,21.819,0,0,1,2.076,2.242,7.57,7.57,0,0,1,1.079,1.876,4.713,4.713,0,0,0-1.215,1.3,5.61,5.61,0,0,0-.474.91c-.13.331-.251.669-.365,1.009a17.809,17.809,0,0,1,.945-1.791,8.863,8.863,0,0,1,1.118-1.411,13.011,13.011,0,0,1,.874,4.22A14.3,14.3,0,0,0,163.621,244.429Z" transform="translate(-139.837 -217.741)"/><path class="d" d="M163.457,244.38a4.782,4.782,0,0,1,1.02.507,3.551,3.551,0,0,1,.492.345c.155.139.316.27.479.4a5.349,5.349,0,0,0-.95-.836A2.976,2.976,0,0,0,163.457,244.38Z" transform="translate(-139.6 -217.396)"/><path class="d" d="M163.534,230.377a7.613,7.613,0,1,0-5.928,8.709A7.5,7.5,0,0,0,163.534,230.377Zm-6.153,3.387a1.9,1.9,0,1,1,1.543-2.266A1.95,1.95,0,0,1,157.381,233.764Z" transform="translate(-140.432 -218.494)"/></g></g><g transform="translate(143.737 25.299)"><path class="c" d="M229.075,218.333h0a21.5,21.5,0,0,0-9.847-1.735c-10.289.621-17.706,8.476-16.533,17.512.752,5.8,4.814,10.834,10.868,13.473a21.507,21.507,0,0,0,9.848,1.736c10.289-.621,17.7-8.476,16.533-17.512-.753-5.8-4.815-10.834-10.869-13.474" transform="translate(-202.572 -216.559)"/><g transform="translate(3.377 2.382)"><path class="d" d="M232.741,236.293a5.807,5.807,0,0,0-.462-.392l0,0,0,0a6.812,6.812,0,0,0-1.917-1.031,8.287,8.287,0,0,0-2.373-.437c.051-.107.1-.214.145-.322a7.589,7.589,0,0,1,2.338.493,6.945,6.945,0,0,1,1.98,1.176,1.133,1.133,0,0,1,.4-.159,2.219,2.219,0,0,1,.626,0,3.532,3.532,0,0,1,1.141.391,10.388,10.388,0,0,0-1.169-.269,2.551,2.551,0,0,0-.6-.03,1.353,1.353,0,0,0-.379.092c.132.113.264.226.385.352a5.547,5.547,0,0,1,1.387,2.528A5.376,5.376,0,0,0,232.741,236.293Z" transform="translate(-204.538 -217.966)"/><path class="d" d="M233.862,230.175a3.241,3.241,0,0,1-.311.382,3.49,3.49,0,0,1-1.577.85l.007.022-.013-.021a4.372,4.372,0,0,1-.729.132,6.443,6.443,0,0,1-2.482-.269l-.108-.036c-.006-.111-.008-.221-.02-.331.08.029.159.06.239.086a6.659,6.659,0,0,0,2.36.3,4.285,4.285,0,0,0,.622-.08,1.49,1.49,0,0,1-.111-.752,1.8,1.8,0,0,1,.479-.926,2.347,2.347,0,0,0-.366.934,1.509,1.509,0,0,0,.05.728,3.3,3.3,0,0,0,1.532-.749,3.4,3.4,0,0,0,1.06-2.055,3.322,3.322,0,0,1-.621,1.769,4.358,4.358,0,0,0,.878-.013,3.832,3.832,0,0,0,.966-.2A2.523,2.523,0,0,1,233.862,230.175Z" transform="translate(-204.502 -218.284)"/><path class="d" d="M234.319,240.968a16.221,16.221,0,0,0-2.661-.924A5.537,5.537,0,0,1,234.319,240.968Z" transform="translate(-204.334 -217.637)"/><path class="d" d="M228.406,229.008l-.277.1c-.039-.092-.076-.183-.118-.272.1-.035.2-.07.291-.106a11.773,11.773,0,0,0,1.557-.677,5.965,5.965,0,0,1-.389-1.707,5.642,5.642,0,0,1,.242-1.844,8.487,8.487,0,0,0-.1,1.831,4.987,4.987,0,0,0,.09.9c.067.265.118.536.165.81a7,7,0,0,0,.631-.376,5.278,5.278,0,0,0,2.091-4.046,6.792,6.792,0,0,1-.426,2.306,4.322,4.322,0,0,1-1.509,1.934A9.023,9.023,0,0,1,228.406,229.008Z" transform="translate(-204.536 -218.548)"/><path class="d" d="M219.166,224.555c-.094.016-.188.026-.282.044l-.06.015a8.912,8.912,0,0,1,.735-2.306c-.1-.178-.207-.357-.3-.544a5.067,5.067,0,0,1-.42-2.787c.11.622.2,1.228.361,1.817.1.484.271.929.406,1.4a7.183,7.183,0,0,1,.461-.788,10.754,10.754,0,0,1,2.516-2.595,11.362,11.362,0,0,0-2.341,2.708A8.006,8.006,0,0,0,219.166,224.555Z" transform="translate(-205.049 -218.816)"/><path class="d" d="M214.745,227.024c-.095.1-.193.19-.283.291-.094-.212-.186-.425-.262-.646a10.472,10.472,0,0,1-.516-2.178,4.693,4.693,0,0,1-2.076-.642,5.284,5.284,0,0,1-1.794-1.809,9,9,0,0,0,1.925,1.595,6.528,6.528,0,0,0,1.935.778,12.548,12.548,0,0,1,.326-4.7,14.006,14.006,0,0,0-.23,2.9,5.853,5.853,0,0,0,1.457-1.3,5.11,5.11,0,0,0,.9-1.9,3.55,3.55,0,0,1-.745,2.029,3.911,3.911,0,0,1-1.613,1.2c.005.191.008.382.023.572a11.865,11.865,0,0,0,.156,1.261c.043.009.084.021.127.03-.041,0-.081-.005-.121-.005a10.124,10.124,0,0,0,.56,2.013C214.586,226.688,214.666,226.855,214.745,227.024Z" transform="translate(-205.547 -218.783)"/><path class="d" d="M227.619,236.995l-1.026-.57c.085-.088.175-.171.257-.263l.942.538a15.148,15.148,0,0,1,2.351,1.611,8.1,8.1,0,0,1,1.847,2.2,9.566,9.566,0,0,1,.977,2.772,8.55,8.55,0,0,0-3-4.75A17.746,17.746,0,0,0,227.619,236.995Z" transform="translate(-204.615 -217.852)"/><path class="d" d="M226.776,224.225l-.012-.022a15.6,15.6,0,0,1-1.236,1.349c-.076.072-.157.136-.234.207-.084-.054-.165-.112-.251-.164.1-.09.2-.175.292-.267.454-.43.886-.883,1.3-1.35-.106-.183-.211-.364-.306-.555a5.076,5.076,0,0,1-.31-.879,5.009,5.009,0,0,1-.11-1.908c.11.623.2,1.229.361,1.818.1.5.285.966.422,1.463q.776-.872,1.494-1.811a13.4,13.4,0,0,1-1.422,2.092Z" transform="translate(-204.701 -218.715)"/><path class="d" d="M222.36,244.12a14.634,14.634,0,0,1-1.575-4.84c-.023-.108-.048-.217-.075-.321.115,0,.229-.013.344-.021.019.079.037.158.056.237a15.155,15.155,0,0,0,1.471,4.792,8.015,8.015,0,0,0,1.274,1.737,6.8,6.8,0,0,1,2.61-.536,7.159,7.159,0,0,1,2.661.487,13.676,13.676,0,0,0-2.68-.261,10.687,10.687,0,0,0-2.575.327,9.343,9.343,0,0,0,2.114,1.64A8.02,8.02,0,0,1,222.36,244.12Z" transform="translate(-204.942 -217.698)"/><path class="d" d="M209.149,234.048v-.017l0,.015a5.253,5.253,0,0,1,.747-.4,8.39,8.39,0,0,1,2.295-.568c.212-.031.423-.058.632-.091.01.046.013.092.023.138s.03.1.042.144c-.232.035-.461.062-.688.093a9.1,9.1,0,0,0-2.238.508,4.251,4.251,0,0,0-.769.382,7.028,7.028,0,0,1,.133,1.986,6.681,6.681,0,0,1-.176,1.123c-.1.369-.21.736-.325,1.1.061-.375.13-.744.209-1.11a8.208,8.208,0,0,0,.138-1.106,12.241,12.241,0,0,0-.013-1.968,7.483,7.483,0,0,0-2.512,2.942,9.179,9.179,0,0,1,1.28-2.108A5.178,5.178,0,0,1,209.149,234.048Z" transform="translate(-205.723 -218.029)"/><path class="d" d="M227.559,241.747a5.18,5.18,0,0,1,.149-2.139,4.575,4.575,0,0,1,1.077-1.913,6.89,6.89,0,0,0-.9,1.952A9.14,9.14,0,0,0,227.559,241.747Z" transform="translate(-204.564 -217.767)"/><path class="d" d="M205.772,230.334a7.334,7.334,0,0,1,2.269-.594,6.778,6.778,0,0,1,2.98.451,4.324,4.324,0,0,0-1.927-2.023,9.343,9.343,0,0,0-2.836-.9,6.031,6.031,0,0,1,2.973.662,4.162,4.162,0,0,1,1.181.974,3.35,3.35,0,0,1,.642,1.3,8.815,8.815,0,0,1,1.327.648c.131.078.257.163.382.248-.013.118-.015.237-.021.356-.167-.125-.338-.244-.516-.353a8.971,8.971,0,0,0-1.991-.912,6.555,6.555,0,0,0-1.364-.267,4.6,4.6,0,0,1-.72,1.838,4,4,0,0,1-.7.774,3.245,3.245,0,0,1-.869.525,4.741,4.741,0,0,0,1.445-1.383,6.777,6.777,0,0,0,.831-1.754A7.122,7.122,0,0,0,205.772,230.334Z" transform="translate(-205.772 -218.347)"/><path class="d" d="M209.356,240.361a1.127,1.127,0,0,1,.46.014,9.126,9.126,0,0,1,1.791-1.982,9.545,9.545,0,0,1,2.864-1.621c.144-.051.29-.09.437-.131.1.1.208.2.316.29a6.133,6.133,0,0,0-.647.179,9.958,9.958,0,0,0-2.792,1.52,8.888,8.888,0,0,0-1.759,1.806h0c-.137.189-.27.382-.392.585a6.848,6.848,0,0,0-1.015,3.082,6.918,6.918,0,0,1,.855-3.176c.1-.178.209-.346.319-.515a1.451,1.451,0,0,0-.416.048,2.974,2.974,0,0,0-.615.257,12.393,12.393,0,0,0-1.157.724,4.523,4.523,0,0,1,1.1-.842A2.612,2.612,0,0,1,209.356,240.361Z" transform="translate(-205.67 -217.826)"/><path class="d" d="M220.6,238.959a8.5,8.5,0,0,0-.286,1.251c-.15.867-.245,1.742-.358,2.616-.05.425-.094.852-.14,1.277a4.684,4.684,0,0,1,.908,1.767,5.222,5.222,0,0,1,.154,1.052,4.31,4.31,0,0,1-.1,1.077,7,7,0,0,0-.229-2.065,8.169,8.169,0,0,0-.739-1.813c-.145,1.319-.28,2.641-.424,3.963q.081-2.627.312-5.261.109-1.319.313-2.639a9.617,9.617,0,0,1,.264-1.221C220.384,238.964,220.491,238.961,220.6,238.959Z" transform="translate(-205.016 -217.697)"/><path class="d" d="M212.832,244.429a8.889,8.889,0,0,1,1.429-3.033,19.288,19.288,0,0,1,2.086-2.319,5.475,5.475,0,0,0,.488-.567,1.158,1.158,0,0,0,.174-.343c.055.025.1.057.159.08.029.013.058.022.087.034a1.669,1.669,0,0,1-.243.449,5.679,5.679,0,0,1-.532.609,21.938,21.938,0,0,0-2.076,2.242,7.6,7.6,0,0,0-1.078,1.876,4.725,4.725,0,0,1,1.214,1.3,5.615,5.615,0,0,1,.475.91c.129.331.25.669.364,1.009a17.593,17.593,0,0,0-.945-1.791,8.863,8.863,0,0,0-1.118-1.411,13.01,13.01,0,0,0-.873,4.22A14.24,14.24,0,0,1,212.832,244.429Z" transform="translate(-205.401 -217.741)"/><path class="d" d="M212.848,244.38a4.764,4.764,0,0,0-1.021.507,3.541,3.541,0,0,0-.491.345c-.156.139-.316.27-.479.4a5.314,5.314,0,0,1,.95-.836A2.968,2.968,0,0,1,212.848,244.38Z" transform="translate(-205.489 -217.396)"/><path class="d" d="M213.465,230.377a7.613,7.613,0,1,1,5.929,8.709A7.5,7.5,0,0,1,213.465,230.377Zm6.153,3.387a1.9,1.9,0,1,0-1.542-2.266A1.95,1.95,0,0,0,219.618,233.764Z" transform="translate(-205.353 -218.494)"/></g></g><path class="e" d="M124.9,216.353a37.508,37.508,0,0,1,5.012-9.675,34.157,34.157,0,0,1,7.858-7.851c.37-.29.767-.539,1.163-.794l1.19-.762,1.236-.685.622-.341.639-.305,1.285-.6,1.317-.526c.438-.184.888-.331,1.337-.478s.9-.312,1.355-.428a33.616,33.616,0,0,1,11.25-1.255A1.271,1.271,0,0,1,160.49,194a1.309,1.309,0,0,1-1.438,1.177,39.1,39.1,0,0,0-10.478,1.235c-.432.094-.848.243-1.272.361s-.848.244-1.259.4l-1.248.437-1.222.5-.611.251-.6.287-1.194.572-1.157.642c-.386.213-.777.421-1.142.67a35.809,35.809,0,0,0-13.859,15.86A.062.062,0,1,1,124.9,216.353Z" transform="translate(-63.151 -192.592)"/><path class="e" d="M217.821,195.178a39.1,39.1,0,0,1,10.479,1.235c.432.094.848.243,1.272.361s.848.244,1.259.4l1.248.437,1.222.5.611.251.6.287,1.194.572,1.157.642c.386.213.777.421,1.142.67a35.809,35.809,0,0,1,13.859,15.86.061.061,0,1,0,.114-.045,37.509,37.509,0,0,0-5.012-9.675,34.157,34.157,0,0,0-7.858-7.851c-.371-.29-.767-.539-1.163-.794l-1.19-.762-1.236-.685-.622-.341-.639-.305-1.285-.6-1.317-.526c-.438-.184-.888-.331-1.337-.478s-.9-.312-1.355-.428a33.615,33.615,0,0,0-11.25-1.255A1.271,1.271,0,0,0,216.383,194,1.309,1.309,0,0,0,217.821,195.178Z" transform="translate(-58.068 -192.592)"/><path class="e" d="M147.3,210.8a18.63,18.63,0,0,0-7.815,7.48,21.846,21.846,0,0,0-2.8,9.589A20.343,20.343,0,0,1,148.2,215.854h0a24.221,24.221,0,0,1,11.093-1.954,20.659,20.659,0,0,1,15.431,7.833A24.146,24.146,0,0,0,167.426,213C161.034,208.31,153.4,207.753,147.3,210.8Z" transform="translate(-62.496 -191.686)"/><path class="e" d="M218.905,213.908A24.221,24.221,0,0,1,230,215.862h0c5.9,2.574,10.118,7.171,11.7,12.594a22,22,0,0,0-2.62-10.018,18.553,18.553,0,0,0-7.662-7.643c-6.042-3.166-13.692-2.736-20.192,1.862a24.436,24.436,0,0,0-7.612,8.9A20.708,20.708,0,0,1,218.905,213.908Z" transform="translate(-58.777 -191.694)"/><path class="e" d="M165.228,249.295a24.226,24.226,0,0,1-11.094,1.955,22.213,22.213,0,0,1-9.481-2.712c.48.417.971.825,1.489,1.205,6.392,4.686,14.022,5.243,20.123,2.193a18.617,18.617,0,0,0,7.816-7.479,21.39,21.39,0,0,0,2.392-6.427A20.528,20.528,0,0,1,165.228,249.295Z" transform="translate(-62.053 -190.067)"/><path class="e" d="M211.236,251.773c6.041,3.166,13.692,2.735,20.191-1.863.577-.407,1.127-.843,1.66-1.3a22.23,22.23,0,0,1-9.345,2.642,24.221,24.221,0,0,1-11.093-1.955,20.5,20.5,0,0,1-11.285-11.361,21.411,21.411,0,0,0,2.209,6.19A18.544,18.544,0,0,0,211.236,251.773Z" transform="translate(-58.902 -190.073)"/><path class="e" d="M306.246,314.646c-.7,1.789-1.52,3.49-1.52,3.49-.593,1.117-1.162,2.266-1.781,3.356a52.949,52.949,0,0,1-4.226,6.3,49.266,49.266,0,0,1-11.054,10.413c-1.072.687-2.132,1.4-3.255,2-1.1.642-2.238,1.218-3.4,1.748s-2.337,1.013-3.533,1.448q-.9.323-1.808.613l-1,.3-1.765.491-.221.061-.055.015-.035-.039-.068-.079-.274-.315-.547-.629-.916-1.048c-.4-.449-.8-.9-1.205-1.338-.81-.888-1.646-1.75-2.488-2.605q-2.538-2.559-5.281-4.9a88.339,88.339,0,0,0-16.773-11.3,12.624,12.624,0,0,1-.456,2.616,13.757,13.757,0,0,1-3.495,5.732,21.649,21.649,0,0,1-5.872,4.334,35.848,35.848,0,0,1-7.129,3.076c.218.468.518,1.138.838,1.957a19.273,19.273,0,0,1,1.4,4.753,12.141,12.141,0,0,1-.28,4.474,12.268,12.268,0,0,1-3.495,5.591,18.165,18.165,0,0,1-6.571,4.054,25.7,25.7,0,0,1-7.69,1.818c.02.7.034,1.711,0,2.937a21.855,21.855,0,0,1-.419,4.613,10.436,10.436,0,0,1-1.258,3.356,11.274,11.274,0,0,1-5.453,4.194,16.536,16.536,0,0,1-3.495,1.119,6.135,6.135,0,0,1,0,2.1,6.847,6.847,0,0,1-1.258,2.8,11.379,11.379,0,0,1-2.936,2.935,8.688,8.688,0,0,1-4.334,1.818,7.6,7.6,0,0,1-3.216-.419,4.563,4.563,0,0,1-.558,2.516,5.385,5.385,0,0,1-2.237,1.957,11.662,11.662,0,0,1-3.775,1.4,6.305,6.305,0,0,1-1.538,2.237,6.871,6.871,0,0,1-3.076,1.538,62.783,62.783,0,0,0-9.647,3.635,28.559,28.559,0,0,0,1.818-4.614,16.949,16.949,0,0,0,0-7.41c-.421-2.148-1.12-3.753-.28-4.613.582-.6,1.47-.392,1.677-.978.119-.339-.06-.735-1.258-2.237a20.429,20.429,0,0,1-1.818-2.238c-.744-1.457.054-2.01-.558-3.495-.564-1.366-1.37-1.213-2.657-2.936a11.187,11.187,0,0,1-1.677-3.495c-.813-2.477-.3-3.07-.979-4.894-.582-1.563-1.19-1.75-2.8-3.914a19.72,19.72,0,0,1-3.495-6.152c-1.067-3.6.5-4.67-.839-7.549-1.13-2.428-2.305-1.8-3.356-4.195-1.375-3.135.116-5.408-1.677-7.409-.563-.629-.917-.637-2.377-1.4a32,32,0,0,1-7.549-5.732,23.4,23.4,0,0,1-4.753-5.453c-.148-.254-.27-.508-.4-.761a88.521,88.521,0,0,0-21.609,13.643q-2.736,2.343-5.281,4.9c-.843.855-1.678,1.717-2.488,2.605-.409.44-.806.89-1.205,1.338l-.916,1.048-.547.629-.274.315-.068.079-.035.039-.055-.015-.221-.061-1.765-.49-1-.3q-.909-.29-1.807-.613-1.8-.652-3.534-1.448c-1.158-.53-2.295-1.106-3.4-1.748-1.123-.6-2.183-1.311-3.255-2a49.266,49.266,0,0,1-11.054-10.413,52.951,52.951,0,0,1-4.226-6.3c-.619-1.089-1.187-2.239-1.781-3.356-.513-1.16-1.063-2.306-1.521-3.49a53.047,53.047,0,0,1-3.452-14.75,56.182,56.182,0,0,1-.179-7.575q.09-1.892.288-3.779c.081-.627.143-1.256.242-1.881l.174-1.13.307-1.809,2.057-.622c.321-.107.641-.219.956-.34.632-.239,1.252-.508,1.857-.8a20.514,20.514,0,0,0,3.421-2.1c1.072-.812,2.174-1.8,3.359-2.728s2.4-1.82,3.652-2.654c.63-.417,1.269-.828,1.966-1.222a12.1,12.1,0,0,1,1.131-.574,5.4,5.4,0,0,1,1.543-.454,4.867,4.867,0,0,1,1.707.133,6.14,6.14,0,0,1,1.409.527,8.654,8.654,0,0,1,2.2,1.636,11.753,11.753,0,0,1,2.7,4.357,10.779,10.779,0,0,1,.45,4.884,4.58,4.58,0,0,1,1.165,1.152,6.749,6.749,0,0,1,1.038,4.244,10.572,10.572,0,0,1-.575,2.823,8.231,8.231,0,0,1,1.531,2.625,7.889,7.889,0,0,1,.466,2.516,8.289,8.289,0,0,1-.4,2.564,9.14,9.14,0,0,1-1.1,2.3,10.567,10.567,0,0,1-1.605,1.933,12.029,12.029,0,0,1-2.5,1.848,8.431,8.431,0,0,1,.024,1.637,13.362,13.362,0,0,1-.366,2.255,21.577,21.577,0,0,1-1.444,4.095,14.974,14.974,0,0,1-.858,1.552c.58.954,1.344,2.529,2.285,3.994a31.782,31.782,0,0,0,2.236,3.156c.326.417.628.743.826.987l.345.383.343.384c.214.23.518.554.891.93.415.422.929.9,1.492,1.4,1.757-.546,4.644-1.281,7.487-2.187,2.287-.715,4.554-1.5,6.249-2.149.845-.325,1.556-.6,2.053-.8l.819-.33.815-.337c.5-.2,1.2-.5,2.03-.865.482-.21,3.382-1.487,5.968-2.839a81.358,81.358,0,0,0,8.395-5.134,19.889,19.889,0,0,1-7.161-6.639,15.914,15.914,0,0,1-2.656-6.432c-1.254-9.014,8.667-15.8,9.506-16.357a26.58,26.58,0,0,1,2.657-1.528c8.467-5.419,25.455-9.3,45.1-9.619.461-.007.912,0,1.369,0,.071.137.139.279.209.418-23.874,1.779-41.906,8.854-41.773,17.017.1,6.419,11.418,11.8,27.878,14.3-10.547-2.864-20.385-8.051-20.249-12.826.074-2.626,3.172-5.161,8.058-7.349a93.26,93.26,0,0,1,13.308-5.578,73.274,73.274,0,0,1,14.172-2.559,69.077,69.077,0,0,1,3.048,8.8,61.271,61.271,0,0,0-15.566,2.751c-9,2.853-10.562,5.736-11,7.364-.4,1.495-.373,3.878.375,4.135.615.212,1.529-1.087,2.048-1.712,2.994-3.606,8.8-4,15.939-4.473a60.881,60.881,0,0,1,10.073.167q.3,1.613.555,3.3c-6.294.594-13.508,2.45-13.471,4.179.049,2.322,13.172,3.663,14.26,3.775a53.144,53.144,0,0,0,13.455-.287,28.12,28.12,0,0,0,6.63-1.577c3.418-1.336,9.84-4.769,9.461-7.969-.3-2.5-4.626-3.848-8.435-5.033a39.124,39.124,0,0,0-9.763-1.6q.2-.834.409-1.65a79.989,79.989,0,0,1,8.189.592c-2.826-.607-5.494-1.041-7.984-1.352a69.213,69.213,0,0,1,3.351-9.735,175.334,175.334,0,0,1,31.876,5.04A50.533,50.533,0,0,1,250.6,285.4a16.429,16.429,0,0,1,4.054,3.5c1.029,1.248,3.428,4.126,3.216,7.829-.149,2.582-1.471,4.391-2.657,6.011-2.641,3.611-6.046,5.39-9.647,7.27-1.23.643-2.345,1.154-3.284,1.554,2.595,1.687,5.588,3.539,8.965,5.467,5.59,3.191,8.808,5.008,13.334,6.632a56.637,56.637,0,0,0,12.087,2.877c.563-.493,1.077-.974,1.491-1.4.373-.376.677-.7.891-.93l.343-.384.345-.383c.2-.244.5-.571.828-.987A31.972,31.972,0,0,0,282.8,319.3c.942-1.465,1.706-3.04,2.285-3.994a14.785,14.785,0,0,1-.858-1.552,21.652,21.652,0,0,1-1.444-4.095,13.366,13.366,0,0,1-.366-2.255,8.429,8.429,0,0,1,.024-1.637,12.028,12.028,0,0,1-2.5-1.848,10.519,10.519,0,0,1-1.6-1.933,9.108,9.108,0,0,1-1.1-2.3,8.289,8.289,0,0,1-.4-2.564,7.887,7.887,0,0,1,.466-2.516,8.231,8.231,0,0,1,1.531-2.625,10.531,10.531,0,0,1-.575-2.823,6.749,6.749,0,0,1,1.038-4.244,4.58,4.58,0,0,1,1.165-1.152,10.779,10.779,0,0,1,.45-4.884,11.761,11.761,0,0,1,2.7-4.357,8.655,8.655,0,0,1,2.2-1.636,6.14,6.14,0,0,1,1.409-.527,4.867,4.867,0,0,1,1.707-.133,5.4,5.4,0,0,1,1.543.454,12.1,12.1,0,0,1,1.131.574c.7.395,1.337.805,1.966,1.222,1.248.834,2.474,1.713,3.652,2.654s2.286,1.916,3.359,2.728a20.517,20.517,0,0,0,3.421,2.1c.6.293,1.224.563,1.857.8.316.121.635.233.956.34l2.057.622.307,1.809.174,1.13c.1.625.16,1.254.242,1.881.12.925.262,3.08.288,3.779C310,295.606,308.955,307.723,306.246,314.646Z" transform="translate(-66.4 -188.218)"/><path class="e" d="M134.643,316.747a19.007,19.007,0,0,1-.632-3.685c-1.941,1.368-4.925,3.385-8.262,5.293,0,0-3.211,1.836-5.993,3.113-.843.387-1.556.7-2.065.913l-.833.35-.84.334c-.512.207-1.241.475-2.113.791-1.746.627-4.087,1.37-6.458,1.973a52.069,52.069,0,0,1-6.968,1.321c.133.109.264.218.4.325,2.19,1.779,4.714,3.135,4.5,3.678s-3.128-.307-5.7-1.978A22.555,22.555,0,0,1,96.35,326.6c-.423-.4-.764-.744-1-.992l-.381-.417-.373-.424c-.214-.27-.534-.637-.876-1.105a22.671,22.671,0,0,1-2.2-3.591,16.861,16.861,0,0,1-1.351-3.731c-.1.123-.193.254-.289.369-1.421,1.692-2.661,2.474-2.781,2.338-.15-.155.81-1.214,1.858-2.989a17.091,17.091,0,0,0,1.458-3.155,22.607,22.607,0,0,0,.93-3.869,11.842,11.842,0,0,0,.143-1.939,5.186,5.186,0,0,0-.24-1.668,1.767,1.767,0,0,0-.635-.967,1.576,1.576,0,0,0-.911-.318,5.418,5.418,0,0,0-1.976.3c-.51.168-.808.3-.808.3s-.035-.025-.066-.077l-.114.051c-.221.093-.547.194-.924.319a9.913,9.913,0,0,1-2.8.345,10.454,10.454,0,0,1-2.627-.4,8.013,8.013,0,0,1-1.105-.386,7.952,7.952,0,0,0,1.145-.046A9.55,9.55,0,0,0,82.8,304a7.972,7.972,0,0,0,2.01-1.1c.231-.2.424-.35.548-.474l.2-.2.263-.1.044-.022c0-.044,0-.076.008-.081l.282-.1.206-.064.111-.054a7.4,7.4,0,0,0,1.785-1.412,8.488,8.488,0,0,0,1.363-2,8.071,8.071,0,0,0,.439-1.058,8.182,8.182,0,0,1-.019,1.172,9.418,9.418,0,0,1-.591,2.605c-.041.106-.091.207-.136.31a6.746,6.746,0,0,1,.757.057,4.632,4.632,0,0,1,1.3.417,7.592,7.592,0,0,0,4.42-3.642,4.647,4.647,0,0,0,.388-3.1,5.186,5.186,0,0,0-1.629-2.876,4.762,4.762,0,0,0-3.231-1.088,8.628,8.628,0,0,0-1.892.25,6.3,6.3,0,0,0-1.756.741c-.578.342-1.182.737-1.812,1.073a17.432,17.432,0,0,1-1.939.891,17.782,17.782,0,0,1-4.077,1.034,17.489,17.489,0,0,0,3.842-1.541,16.36,16.36,0,0,0,1.729-1.092c.553-.4,1.062-.84,1.63-1.287a7.571,7.571,0,0,1,1.951-1.144,10.089,10.089,0,0,1,2.186-.592,7.086,7.086,0,0,1,2.434.051,6.243,6.243,0,0,0,.41-1.141,3.435,3.435,0,0,0-.014-2.007,1.337,1.337,0,0,0-.455-.6,2.388,2.388,0,0,0-.969-.4,6.029,6.029,0,0,0-1.338-.111c-.241,0-.485.017-.747.037-.245.026-.474.033-.7.077a7.71,7.71,0,0,0-2.711,1.023,11.809,11.809,0,0,1-3.16,1.291,11.477,11.477,0,0,1-6.537-.607,10.93,10.93,0,0,0,6.2-.456,10.465,10.465,0,0,0,2.577-1.627,9.657,9.657,0,0,1,3.067-1.783c.289-.108.6-.177.877-.257s.556-.137.852-.192a9.448,9.448,0,0,1,1.246-.147,7.151,7.151,0,0,0-.331-2.894,8.285,8.285,0,0,0-1.866-3,5.14,5.14,0,0,0-1.285-.969,2.568,2.568,0,0,0-.629-.239,1.638,1.638,0,0,0-.456-.059,2.182,2.182,0,0,0-.537.179,8.7,8.7,0,0,0-.815.417c-.57.322-1.157.7-1.741,1.084-1.172.784-2.314,1.6-3.412,2.478s-2.176,1.828-3.422,2.777a24.081,24.081,0,0,1-4.009,2.463c-.705.342-1.423.653-2.151.929-.364.139-.732.268-1.1.391l-.041.014-.1.686c-.093.585-.149,1.175-.227,1.762q-.187,1.767-.269,3.546a52.834,52.834,0,0,0,.169,7.1A49.472,49.472,0,0,0,73.2,313.109a48.042,48.042,0,0,0,17.272,21.927c.991.631,1.968,1.288,3.005,1.842a34.55,34.55,0,0,0,3.133,1.614q1.6.738,3.263,1.337.831.3,1.671.567l.76.233.383-.437c.414-.467.829-.933,1.253-1.391.841-.922,1.709-1.819,2.586-2.708q2.636-2.658,5.489-5.092A92.124,92.124,0,0,1,134.643,316.747Z" transform="translate(-66.213 -187.985)"/><path class="e" d="M297.073,292.242c-.057-1.184-.145-2.368-.27-3.546-.077-.587-.133-1.177-.226-1.762l-.1-.686-.041-.014c-.369-.122-.737-.251-1.1-.391-.728-.275-1.446-.587-2.151-.929a24.082,24.082,0,0,1-4.009-2.463c-1.247-.949-2.317-1.911-3.422-2.777s-2.24-1.694-3.412-2.478c-.584-.387-1.171-.762-1.741-1.084a8.7,8.7,0,0,0-.815-.417,2.167,2.167,0,0,0-.537-.179,1.638,1.638,0,0,0-.456.059,2.568,2.568,0,0,0-.629.239,5.14,5.14,0,0,0-1.285.969,8.284,8.284,0,0,0-1.866,3,7.151,7.151,0,0,0-.331,2.894,9.447,9.447,0,0,1,1.246.147c.3.056.583.124.852.192s.589.149.877.257a9.657,9.657,0,0,1,3.067,1.783,10.466,10.466,0,0,0,2.577,1.627,10.929,10.929,0,0,0,6.2.456,11.477,11.477,0,0,1-6.537.607,11.808,11.808,0,0,1-3.16-1.291,7.711,7.711,0,0,0-2.711-1.023c-.228-.044-.457-.051-.7-.077-.263-.02-.507-.035-.747-.037a6.1,6.1,0,0,0-1.338.111,2.388,2.388,0,0,0-.969.4,1.336,1.336,0,0,0-.455.6,3.435,3.435,0,0,0-.014,2.007,6.244,6.244,0,0,0,.41,1.141,7.086,7.086,0,0,1,2.434-.051,10.089,10.089,0,0,1,2.186.592,7.57,7.57,0,0,1,1.951,1.144c.567.446,1.077.888,1.629,1.287a16.483,16.483,0,0,0,1.73,1.092,17.489,17.489,0,0,0,3.842,1.541,17.768,17.768,0,0,1-4.077-1.034,17.428,17.428,0,0,1-1.939-.891c-.63-.337-1.234-.731-1.812-1.073a6.3,6.3,0,0,0-1.756-.741,8.628,8.628,0,0,0-1.892-.25,4.762,4.762,0,0,0-3.231,1.088,5.186,5.186,0,0,0-1.629,2.876,4.647,4.647,0,0,0,.388,3.1,7.592,7.592,0,0,0,4.42,3.642,4.631,4.631,0,0,1,1.3-.417,6.746,6.746,0,0,1,.757-.057c-.045-.1-.095-.2-.136-.31a9.417,9.417,0,0,1-.591-2.605,8.185,8.185,0,0,1-.019-1.172,8.077,8.077,0,0,0,.439,1.058,8.487,8.487,0,0,0,1.363,2,7.4,7.4,0,0,0,1.785,1.412l.111.054.206.064.282.1c.013.005.013.037.008.081l.044.022.263.1.2.2c.123.123.317.274.548.474a7.972,7.972,0,0,0,2.01,1.1,9.547,9.547,0,0,0,2.375.546,7.936,7.936,0,0,0,1.144.046,8.011,8.011,0,0,1-1.105.386,10.462,10.462,0,0,1-2.627.4,9.913,9.913,0,0,1-2.8-.345c-.377-.125-.7-.226-.924-.319l-.114-.051c-.032.052-.056.081-.066.077s-.3-.134-.808-.3a5.418,5.418,0,0,0-1.976-.3,1.576,1.576,0,0,0-.911.318,1.767,1.767,0,0,0-.635.967,5.192,5.192,0,0,0-.24,1.668,11.841,11.841,0,0,0,.143,1.939,22.6,22.6,0,0,0,.93,3.869,17.093,17.093,0,0,0,1.458,3.155c1.048,1.775,2.008,2.834,1.858,2.989-.12.136-1.361-.646-2.781-2.338-.1-.115-.192-.246-.289-.369a16.86,16.86,0,0,1-1.351,3.731,22.673,22.673,0,0,1-2.2,3.591c-.342.469-.662.835-.876,1.105l-.373.424-.381.417c-.24.248-.581.6-1,.992a22.557,22.557,0,0,1-3.329,2.574c-2.57,1.671-5.49,2.532-5.7,1.978s2.309-1.9,4.5-3.678c.136-.107.267-.216.4-.325a63.363,63.363,0,0,1-6.968-1.321,65.978,65.978,0,0,1-6.458-1.973,80.508,80.508,0,0,1-11.844-5.5c-2.231-1.21-4.995-2.8-8.1-4.8.064.093.129.179.2.277a14.73,14.73,0,0,1,2.129,4.371,91.98,91.98,0,0,1,19.5,12.8q2.845,2.437,5.49,5.092c.876.889,1.744,1.786,2.585,2.708.424.458.839.925,1.253,1.391l.383.437.76-.233q.841-.266,1.671-.567,1.658-.6,3.263-1.337a34.553,34.553,0,0,0,3.133-1.614c1.038-.554,2.015-1.211,3.005-1.842a48.042,48.042,0,0,0,17.272-21.927,49.471,49.471,0,0,0,3.218-13.762A52.837,52.837,0,0,0,297.073,292.242Z" transform="translate(-57.142 -187.985)"/><path class="e" d="M167.92,252.987a19.167,19.167,0,0,1-6.1,2.145,29.712,29.712,0,0,1,3.385,1.643c9.065,5.147,18.661,18.488,21.939,45.592.614.047,1.247.087,1.915.1.926.024,1.8.011,2.63-.027,3.323-26.829,12.714-40.548,21.732-45.668a29.613,29.613,0,0,1,3.384-1.643,19.161,19.161,0,0,1-6.1-2.145,18.594,18.594,0,0,1-7.455-7.688,54.2,54.2,0,0,1-.9,7.559c-1.888,10.046-4.847,12.085-10.171,30.977-1.176,4.17-2.122,7.939-2.87,11.149-.749-3.21-1.7-6.978-2.871-11.149-5.324-18.892-8.283-20.932-10.171-30.977a54.2,54.2,0,0,1-.9-7.559A18.6,18.6,0,0,1,167.92,252.987Z" transform="translate(-61.099 -189.664)"/><path class="e" d="M198,294.606c.057-.265-1.887-1.088-4.976-1.945-.074.444-.144.9-.212,1.346C196.02,294.373,197.947,294.866,198,294.606Z" transform="translate(-59.377 -187.032)"/><path class="e" d="M187.624,283.35c.265.01.538.022.811.035.154-.57.305-1.141.464-1.708.83-2.941,1.6-5.471,2.318-7.692-2.236-.021-4.35.013-6.339.087.711,2.2,1.471,4.7,2.291,7.605C187.325,282.232,187.473,282.792,187.624,283.35Z" transform="translate(-59.818 -188.07)"/><path class="e" d="M181.789,285.967c-.068-.282-.137-.556-.206-.835-2.776.45-5.312,1.008-7.57,1.6C176.933,286.363,179.546,286.124,181.789,285.967Z" transform="translate(-60.422 -187.451)"/><g transform="translate(62.712 93.294)"><path class="f" d="M180.254,378.225c-.207-.155-.515.084-1.165.326a6.887,6.887,0,0,1-3.682.28c-.942-.2-1.637-.787-3.028-1.958a10.906,10.906,0,0,1-2.8-3.075,9.137,9.137,0,0,1-.979-2.563c-.261,3.363.587,5.094,1.445,6.058A7.494,7.494,0,0,1,172,379.9a5.552,5.552,0,0,1,.28,2.61c-.262-.342-1.333-1.736-2.424-3.029a1.448,1.448,0,0,0-.838-.559,1.418,1.418,0,0,0-1.212.419c-.419.458-.321,1.16.419,4.241a12.811,12.811,0,0,1,.513,2.516,7.267,7.267,0,0,1-.513,2.935,11.309,11.309,0,0,0,6.059-4.566,5.247,5.247,0,0,0-.187-3.915A3.555,3.555,0,0,0,176.246,382a3.627,3.627,0,0,0,2.936-.745C180.3,380.276,180.682,378.546,180.254,378.225Z" transform="translate(-123.492 -275.962)"/><path class="f" d="M191.425,372.215c-.13-.785-.468-1.578-.686-1.553-.129.015-.122.3-.391.7a2.42,2.42,0,0,1-.678.654,4.5,4.5,0,0,1-2.232.649,10.4,10.4,0,0,1-2.076.006,15.088,15.088,0,0,1-2.823-.657c-.7-.208-1.627-.5-2.71-.882.349.247.72.493,1.114.734a21.023,21.023,0,0,0,3.6,1.764c-.619-.086-1.431-.218-2.374-.432a27.905,27.905,0,0,1-10.1-4.509,27.29,27.29,0,0,1-4.59-3.885A21.721,21.721,0,0,1,165,361.658a19.928,19.928,0,0,1-1.141-2.039,5.869,5.869,0,0,0-.15,1.986,6.468,6.468,0,0,0,1.158,3,21.554,21.554,0,0,0,4.306,4.661,42.6,42.6,0,0,0,5.148,3.756,34.6,34.6,0,0,0,4.492,2.385c.316.136,1.117.422,2.718.992a7.284,7.284,0,0,0,2.3.518,6.393,6.393,0,0,0,.783-.017c-.478-.167-1.13-.406-1.893-.726-1.051-.442-1.79-.817-2.808-1.334-1.4-.713-2.445-1.3-2.834-1.525-.744-.425-1.524-.872-2.369-1.425a29.336,29.336,0,0,1-3.692-2.872,61.5,61.5,0,0,0,6.548,3.842,44.036,44.036,0,0,0,5.272,2.237,11.47,11.47,0,0,0,5.636.923,2.824,2.824,0,0,0,2.948-3.8Z" transform="translate(-123.708 -276.607)"/><path class="f" d="M202.089,360.494c-.326-1.153-.981-2.3-1.324-2.239-.2.034-.147.457-.511,1.077a3.556,3.556,0,0,1-.973,1.037,7.208,7.208,0,0,1-3.436,1.177,17.514,17.514,0,0,1-3.287.206,25.785,25.785,0,0,1-4.567-.706c-1.142-.241-2.65-.583-4.424-1.05.59.333,1.215.662,1.874.983a35.99,35.99,0,0,0,5.973,2.274c-.992-.068-2.3-.188-3.823-.415a47.827,47.827,0,0,1-16.679-5.73,45.44,45.44,0,0,1-7.856-5.327,34.977,34.977,0,0,1-4.411-4.432,31.073,31.073,0,0,1-2.116-2.918,8.207,8.207,0,0,0,.064,2.961,9.746,9.746,0,0,0,2.29,4.335,35.07,35.07,0,0,0,7.526,6.508,71.28,71.28,0,0,0,8.722,5.081,58.706,58.706,0,0,0,7.474,3.111c.52.173,1.831.52,4.454,1.214a12.462,12.462,0,0,0,3.725.55,10.657,10.657,0,0,0,1.238-.1c-.783-.2-1.852-.5-3.109-.9-1.731-.555-2.958-1.042-4.647-1.711-2.33-.925-4.069-1.7-4.719-1.995-1.243-.561-2.546-1.147-3.967-1.888a49.221,49.221,0,0,1-6.283-3.91,104.592,104.592,0,0,0,10.95,5.077,75.4,75.4,0,0,0,8.687,2.817c4.046,1.051,6.479,1.327,9.063.833,1.39-.266,3.11-.621,3.957-2A4.935,4.935,0,0,0,202.089,360.494Z" transform="translate(-124.111 -277.451)"/><path class="f" d="M219.668,340.129c-.805-1.605-2.061-3.089-2.516-2.889-.268.117-.063.729-.374,1.77a5.485,5.485,0,0,1-1.025,1.864c-.272.357-1.258,1.566-4.381,2.89a23.523,23.523,0,0,1-4.473,1.4,33.9,33.9,0,0,1-6.524.467c-1.651.02-3.839.014-6.43-.094.917.3,1.881.581,2.889.839a47.583,47.583,0,0,0,8.947,1.4c-1.39.229-3.231.483-5.406.653a63.073,63.073,0,0,1-24.792-2.983,61.717,61.717,0,0,1-12.489-5.313A49.2,49.2,0,0,1,155.637,335a45.3,45.3,0,0,1-3.821-3.635,13.289,13.289,0,0,0,1,4.381,14.615,14.615,0,0,0,4.5,5.685c2.432,2.017,5.92,4.383,12.4,7.177a95.622,95.622,0,0,0,13.608,4.66,77.635,77.635,0,0,0,11.277,2.144c.774.084,2.691.165,6.524.326a16.415,16.415,0,0,0,5.313-.419,14.438,14.438,0,0,0,1.678-.559c-1.143-.04-2.711-.121-4.567-.3-2.561-.25-4.406-.567-6.943-1-3.5-.6-6.141-1.178-7.13-1.4-1.889-.421-3.869-.862-6.058-1.492a66.387,66.387,0,0,1-9.88-3.727,138.755,138.755,0,0,0,16.684,3.914,99.472,99.472,0,0,0,12.862,1.3c5.909.22,9.354-.178,12.769-1.771,1.837-.856,4.1-1.953,4.846-4.287S220.265,341.318,219.668,340.129Z" transform="translate(-124.367 -278.176)"/><path class="f" d="M235.836,316.486c-.751-1.96-2.487-4.4-3.775-4.124-.875.19-.969,1.508-1.748,3.076-1.3,2.611-3.495,3.883-6.081,5.382-1.915,1.109-4.666,2.314-13.981,3.495-3.033.384-7.073.806-11.883,1.048a50.839,50.839,0,0,0,16.847,1.258,102.881,102.881,0,0,1-22.09,2.727,122.666,122.666,0,0,1-15.519-.909,93.149,93.149,0,0,1-16.5-2.8,79.437,79.437,0,0,1-10.276-3.634c-8.083-3.493-11.464-6.543-12.792-7.829-.914-.886-1.62-1.676-2.1-2.238a10.141,10.141,0,0,0,.349,2.867c.954,3.5,3.615,5.588,5.663,7.06a74.126,74.126,0,0,0,13.771,7.829,104.671,104.671,0,0,0,15.728,4.894,99.327,99.327,0,0,0,18.734,3.146c1.4.083,4.942.126,12.023.21a55.422,55.422,0,0,0,6.781-.14,35.834,35.834,0,0,0,10.135-2.586c-1.719.035-4.149.072-7.06.07-6.262,0-10.608-.007-16.009-.419a132.675,132.675,0,0,1-16.94-2.377c-4.464-.936-8.212-1.975-11.044-2.843,4.9.971,10.586,1.932,16.94,2.7,20.888,2.537,32.061.98,40.544-2.028,5.106-1.81,9.557-4.258,10.625-8.248A10.112,10.112,0,0,0,235.836,316.486Z" transform="translate(-125.249 -279.256)"/><path class="f" d="M243.575,303.224c2.338-1.333,4.274-2.643,5.452-4.986a6.682,6.682,0,0,0,.839-3.541,7.677,7.677,0,0,0-2.75-4.894,32.312,32.312,0,0,0-11.185-6.664c-2.651-.84-4.894-1.551-6.921-2.163,5.212,2.25,8.3,5.032,8.341,8.08,0,.116-.022.23-.03.345.01.094.031.187.031.28a4.381,4.381,0,0,1-1.218,2.73c-1.941,2.616-6.121,4.99-11.883,6.9a53.768,53.768,0,0,1-5.513,1.743c-1.578.4-3.9.741-8.53,1.427-3.636.538-9.91,1.466-16.787,1.93a118.608,118.608,0,0,1-17.326.12c-1.389-.13-2.829-.327-4.29-.578-21.739-.524-39.321-5.541-43.865-12.335a10.151,10.151,0,0,0-.73,1.077,10.55,10.55,0,0,0-1.4,4.894c0,3.25,2.191,5.587,3.635,7.13a21.768,21.768,0,0,0,7.829,5.172,100.836,100.836,0,0,0,15.938,5.453,161.27,161.27,0,0,0,24.466,3.775,149.946,149.946,0,0,0,27.4-.28,110.66,110.66,0,0,0,13.7-2.377c3.976-.965,7.333-2.027,9.926-2.936-1.788.133-4.394.3-7.549.419-4.251.158-7.426.146-8.948.14-15.479-.055-15.125.146-20.411,0-5.374-.148-12.857-.551-21.949-1.678,5.172.362,11.413.635,18.5.606,7.452-.031,13.066-.384,14.959-.512,7.194-.486,13.411-1.251,18.92-2.144a75.427,75.427,0,0,0,10.439-2.237A59.334,59.334,0,0,0,243.575,303.224Z" transform="translate(-125.812 -280.976)"/></g></g><path class="g" d="M134.643,316.747a19.007,19.007,0,0,1-.632-3.685c-1.941,1.368-4.925,3.385-8.262,5.293,0,0-3.211,1.836-5.993,3.113-.843.387-1.556.7-2.065.913l-.833.35-.84.334c-.512.207-1.241.475-2.113.791-1.746.627-4.087,1.37-6.458,1.973a52.069,52.069,0,0,1-6.968,1.321c.133.109.264.218.4.325,2.19,1.779,4.714,3.135,4.5,3.678s-3.128-.307-5.7-1.978A22.555,22.555,0,0,1,96.35,326.6c-.423-.4-.764-.744-1-.992l-.381-.417-.373-.424c-.214-.27-.534-.637-.876-1.105a22.671,22.671,0,0,1-2.2-3.591,16.861,16.861,0,0,1-1.351-3.731c-.1.123-.193.254-.289.369-1.421,1.692-2.661,2.474-2.781,2.338-.15-.155.81-1.214,1.858-2.989a17.091,17.091,0,0,0,1.458-3.155,22.607,22.607,0,0,0,.93-3.869,11.842,11.842,0,0,0,.143-1.939,5.186,5.186,0,0,0-.24-1.668,1.767,1.767,0,0,0-.635-.967,1.576,1.576,0,0,0-.911-.318,5.418,5.418,0,0,0-1.976.3c-.51.168-.808.3-.808.3s-.035-.025-.066-.077l-.114.051c-.221.093-.547.194-.924.319a9.913,9.913,0,0,1-2.8.345,10.454,10.454,0,0,1-2.627-.4,8.013,8.013,0,0,1-1.105-.386,7.952,7.952,0,0,0,1.145-.046A9.55,9.55,0,0,0,82.8,304a7.972,7.972,0,0,0,2.01-1.1c.231-.2.424-.35.548-.474l.2-.2.263-.1.044-.022c0-.044,0-.076.008-.081l.282-.1.206-.064.111-.054a7.4,7.4,0,0,0,1.785-1.412,8.488,8.488,0,0,0,1.363-2,8.071,8.071,0,0,0,.439-1.058,8.182,8.182,0,0,1-.019,1.172,9.418,9.418,0,0,1-.591,2.605c-.041.106-.091.207-.136.31a6.746,6.746,0,0,1,.757.057,4.632,4.632,0,0,1,1.3.417,7.592,7.592,0,0,0,4.42-3.642,4.647,4.647,0,0,0,.388-3.1,5.186,5.186,0,0,0-1.629-2.876,4.762,4.762,0,0,0-3.231-1.088,8.628,8.628,0,0,0-1.892.25,6.3,6.3,0,0,0-1.756.741c-.578.342-1.182.737-1.812,1.073a17.432,17.432,0,0,1-1.939.891,17.782,17.782,0,0,1-4.077,1.034,17.489,17.489,0,0,0,3.842-1.541,16.36,16.36,0,0,0,1.729-1.092c.553-.4,1.062-.84,1.63-1.287a7.571,7.571,0,0,1,1.951-1.144,10.089,10.089,0,0,1,2.186-.592,7.086,7.086,0,0,1,2.434.051,6.243,6.243,0,0,0,.41-1.141,3.435,3.435,0,0,0-.014-2.007,1.337,1.337,0,0,0-.455-.6,2.388,2.388,0,0,0-.969-.4,6.029,6.029,0,0,0-1.338-.111c-.241,0-.485.017-.747.037-.245.026-.474.033-.7.077a7.71,7.71,0,0,0-2.711,1.023,11.809,11.809,0,0,1-3.16,1.291,11.477,11.477,0,0,1-6.537-.607,10.93,10.93,0,0,0,6.2-.456,10.465,10.465,0,0,0,2.577-1.627,9.657,9.657,0,0,1,3.067-1.783c.289-.108.6-.177.877-.257s.556-.137.852-.192a9.448,9.448,0,0,1,1.246-.147,7.151,7.151,0,0,0-.331-2.894,8.285,8.285,0,0,0-1.866-3,5.14,5.14,0,0,0-1.285-.969,2.568,2.568,0,0,0-.629-.239,1.638,1.638,0,0,0-.456-.059,2.182,2.182,0,0,0-.537.179,8.7,8.7,0,0,0-.815.417c-.57.322-1.157.7-1.741,1.084-1.172.784-2.314,1.6-3.412,2.478s-2.176,1.828-3.422,2.777a24.081,24.081,0,0,1-4.009,2.463c-.705.342-1.423.653-2.151.929-.364.139-.732.268-1.1.391l-.041.014-.1.686c-.093.585-.149,1.175-.227,1.762q-.187,1.767-.269,3.546a52.834,52.834,0,0,0,.169,7.1A49.472,49.472,0,0,0,73.2,313.109a48.042,48.042,0,0,0,17.272,21.927c.991.631,1.968,1.288,3.005,1.842a34.55,34.55,0,0,0,3.133,1.614q1.6.738,3.263,1.337.831.3,1.671.567l.76.233.383-.437c.414-.467.829-.933,1.253-1.391.841-.922,1.709-1.819,2.586-2.708q2.636-2.658,5.489-5.092A92.124,92.124,0,0,1,134.643,316.747Z" transform="translate(-66.213 -187.985)"/><path class="g" d="M297.073,292.242c-.057-1.184-.145-2.368-.27-3.546-.077-.587-.133-1.177-.226-1.762l-.1-.686-.041-.014c-.369-.122-.737-.251-1.1-.391-.728-.275-1.446-.587-2.151-.929a24.082,24.082,0,0,1-4.009-2.463c-1.247-.949-2.317-1.911-3.422-2.777s-2.24-1.694-3.412-2.478c-.584-.387-1.171-.762-1.741-1.084a8.7,8.7,0,0,0-.815-.417,2.167,2.167,0,0,0-.537-.179,1.638,1.638,0,0,0-.456.059,2.568,2.568,0,0,0-.629.239,5.14,5.14,0,0,0-1.285.969,8.284,8.284,0,0,0-1.866,3,7.151,7.151,0,0,0-.331,2.894,9.447,9.447,0,0,1,1.246.147c.3.056.583.124.852.192s.589.149.877.257a9.657,9.657,0,0,1,3.067,1.783,10.466,10.466,0,0,0,2.577,1.627,10.929,10.929,0,0,0,6.2.456,11.477,11.477,0,0,1-6.537.607,11.808,11.808,0,0,1-3.16-1.291,7.711,7.711,0,0,0-2.711-1.023c-.228-.044-.457-.051-.7-.077-.263-.02-.507-.035-.747-.037a6.1,6.1,0,0,0-1.338.111,2.388,2.388,0,0,0-.969.4,1.336,1.336,0,0,0-.455.6,3.435,3.435,0,0,0-.014,2.007,6.244,6.244,0,0,0,.41,1.141,7.086,7.086,0,0,1,2.434-.051,10.089,10.089,0,0,1,2.186.592,7.57,7.57,0,0,1,1.951,1.144c.567.446,1.077.888,1.629,1.287a16.483,16.483,0,0,0,1.73,1.092,17.489,17.489,0,0,0,3.842,1.541,17.768,17.768,0,0,1-4.077-1.034,17.428,17.428,0,0,1-1.939-.891c-.63-.337-1.234-.731-1.812-1.073a6.3,6.3,0,0,0-1.756-.741,8.628,8.628,0,0,0-1.892-.25,4.762,4.762,0,0,0-3.231,1.088,5.186,5.186,0,0,0-1.629,2.876,4.647,4.647,0,0,0,.388,3.1,7.592,7.592,0,0,0,4.42,3.642,4.631,4.631,0,0,1,1.3-.417,6.746,6.746,0,0,1,.757-.057c-.045-.1-.095-.2-.136-.31a9.417,9.417,0,0,1-.591-2.605,8.185,8.185,0,0,1-.019-1.172,8.077,8.077,0,0,0,.439,1.058,8.487,8.487,0,0,0,1.363,2,7.4,7.4,0,0,0,1.785,1.412l.111.054.206.064.282.1c.013.005.013.037.008.081l.044.022.263.1.2.2c.123.123.317.274.548.474a7.972,7.972,0,0,0,2.01,1.1,9.547,9.547,0,0,0,2.375.546,7.936,7.936,0,0,0,1.144.046,8.011,8.011,0,0,1-1.105.386,10.462,10.462,0,0,1-2.627.4,9.913,9.913,0,0,1-2.8-.345c-.377-.125-.7-.226-.924-.319l-.114-.051c-.032.052-.056.081-.066.077s-.3-.134-.808-.3a5.418,5.418,0,0,0-1.976-.3,1.576,1.576,0,0,0-.911.318,1.767,1.767,0,0,0-.635.967,5.192,5.192,0,0,0-.24,1.668,11.841,11.841,0,0,0,.143,1.939,22.6,22.6,0,0,0,.93,3.869,17.093,17.093,0,0,0,1.458,3.155c1.048,1.775,2.008,2.834,1.858,2.989-.12.136-1.361-.646-2.781-2.338-.1-.115-.192-.246-.289-.369a16.86,16.86,0,0,1-1.351,3.731,22.673,22.673,0,0,1-2.2,3.591c-.342.469-.662.835-.876,1.105l-.373.424-.381.417c-.24.248-.581.6-1,.992a22.557,22.557,0,0,1-3.329,2.574c-2.57,1.671-5.49,2.532-5.7,1.978s2.309-1.9,4.5-3.678c.136-.107.267-.216.4-.325a63.363,63.363,0,0,1-6.968-1.321,65.978,65.978,0,0,1-6.458-1.973,80.508,80.508,0,0,1-11.844-5.5c-2.231-1.21-4.995-2.8-8.1-4.8.064.093.129.179.2.277a14.73,14.73,0,0,1,2.129,4.371,91.98,91.98,0,0,1,19.5,12.8q2.845,2.437,5.49,5.092c.876.889,1.744,1.786,2.585,2.708.424.458.839.925,1.253,1.391l.383.437.76-.233q.841-.266,1.671-.567,1.658-.6,3.263-1.337a34.553,34.553,0,0,0,3.133-1.614c1.038-.554,2.015-1.211,3.005-1.842a48.042,48.042,0,0,0,17.272-21.927,49.471,49.471,0,0,0,3.218-13.762A52.837,52.837,0,0,0,297.073,292.242Z" transform="translate(-57.142 -187.985)"/></g></g></svg>